<?xml version="1.0" standalone="no"?>
<!DOCTYPE svg PUBLIC "-//W3C//DTD SVG 20010904//EN"
 "http://www.w3.org/TR/2001/REC-SVG-20010904/DTD/svg10.dtd">
<svg version="1.0" xmlns="http://www.w3.org/2000/svg"
 width="50%" height="50%" viewBox="0 0 512.000000 512.000000"
 preserveAspectRatio="xMidYMid meet">

<g transform="translate(0.000000,512.000000) scale(0.100000,-0.100000)"
fill="current" stroke="none">
<path d="M2170 3583 c-19 -2 -457 -55 -972 -117 -927 -112 -938 -113 -973
-140 -91 -70 -145 -226 -145 -421 0 -97 20 -187 62 -277 l31 -68 -31 -67 c-50
-108 -65 -190 -59 -323 4 -115 35 -240 72 -292 12 -18 10 -25 -22 -69 -171
-238 -175 -796 -8 -1043 22 -33 59 -73 81 -89 l41 -29 1394 -164 1394 -165
323 38 322 39 0 -174 c0 -170 0 -173 25 -197 25 -26 63 -32 94 -15 10 5 60 79
111 165 51 85 95 155 99 155 3 -1 44 -53 91 -116 47 -64 93 -120 102 -125 30
-16 68 -10 93 16 25 24 25 27 25 194 0 169 0 171 23 176 25 5 695 85 715 85 7
0 24 11 37 25 48 47 23 120 -45 134 -149 30 -221 495 -124 791 34 102 70 152
119 168 49 15 75 45 75 84 0 33 -39 78 -68 78 -42 0 -92 150 -92 280 0 130 50
280 92 280 30 0 68 45 68 80 0 35 -38 80 -68 80 -42 0 -92 150 -92 280 0 82
23 190 50 238 12 20 36 44 53 52 46 22 64 59 48 97 -7 17 -22 35 -34 42 -12 6
-598 79 -1302 162 -1254 148 -1481 169 -1605 152z m1180 -264 c525 -61 962
-113 970 -116 8 -3 -273 -41 -625 -84 l-640 -78 -995 115 c-547 63 -1003 118
-1013 122 -24 10 1136 149 1253 151 65 1 396 -34 1050 -110z m-2852 -140 l104
-12 -7 -31 c-38 -174 -43 -291 -21 -436 7 -47 12 -86 11 -88 -7 -8 -270 31
-277 41 -81 118 -90 367 -18 507 21 41 22 42 63 36 23 -3 89 -11 145 -17z
m1307 -154 c539 -63 996 -117 1016 -121 l36 -5 -24 -77 c-42 -131 -41 -309 2
-458 6 -19 -22 -17 -855 81 -625 74 -864 105 -870 115 -19 31 -33 188 -26 308
6 121 6 123 -18 147 -33 32 -79 33 -110 1 -20 -19 -25 -38 -31 -112 -8 -88 -2
-238 11 -303 l7 -34 -69 7 c-107 11 -112 14 -124 55 -37 132 -38 334 -1 452
20 62 22 65 48 62 16 -2 469 -55 1008 -118z m3030 48 c-4 -10 -14 -54 -22 -98
-21 -110 -13 -255 20 -357 l25 -78 -32 -5 c-17 -3 -425 -52 -906 -110 l-875
-105 -22 25 c-72 81 -82 342 -19 481 l24 51 98 13 c841 102 1647 198 1678 199
32 1 37 -2 31 -16z m-3490 -714 c528 -62 961 -113 962 -114 1 0 -7 -37 -19
-80 -23 -87 -31 -291 -15 -413 l8 -63 -53 6 c-86 10 -95 13 -107 42 -37 90
-51 266 -31 374 12 64 1 101 -36 118 -67 30 -106 -4 -124 -110 -14 -81 -9
-239 10 -327 7 -29 10 -55 7 -58 -10 -10 -1631 187 -1639 199 -81 119 -90 367
-18 507 21 40 23 42 58 37 20 -3 469 -56 997 -118z m3490 -6 c-4 -10 -14 -54
-22 -98 -21 -110 -13 -258 20 -356 14 -41 24 -76 22 -78 -2 -2 -410 -52 -907
-112 l-903 -109 -22 25 c-72 81 -82 342 -19 481 l24 51 103 13 c756 93 1642
198 1673 199 32 1 37 -2 31 -16z m-2172 -148 c73 -9 146 -18 163 -20 l32 -5
-25 -78 c-42 -131 -41 -309 2 -458 l6 -20 -188 23 c-103 12 -191 22 -195 23
-3 0 -14 43 -23 96 -23 127 -17 291 15 387 27 79 12 75 213 52z m-2251 -456
c58 -8 87 -16 84 -23 -29 -69 -68 -215 -82 -307 -12 -86 -15 -148 -11 -254 6
-122 14 -178 53 -356 l6 -26 -83 11 c-81 11 -84 12 -116 54 -139 183 -132 709
11 880 32 37 23 35 138 21z m360 -44 l46 -6 -24 -72 c-84 -241 -96 -526 -33
-787 10 -46 17 -85 15 -88 -3 -2 -32 -1 -66 3 -59 7 -63 9 -77 44 -9 20 -27
79 -41 131 -23 86 -26 114 -26 290 -1 217 11 287 76 431 29 64 33 70 57 65 14
-3 47 -7 73 -11z m765 -88 c293 -35 535 -66 538 -69 3 -3 -6 -45 -20 -94 -70
-242 -73 -538 -6 -780 11 -38 18 -71 15 -73 -3 -3 -251 24 -552 60 l-547 64
-28 83 c-62 186 -74 479 -27 657 21 79 77 215 89 215 3 0 246 -29 538 -63z
m3251 -19 c-50 -132 -62 -214 -62 -408 0 -200 11 -264 69 -402 15 -35 29 -70
31 -78 4 -13 -36 -20 -250 -45 l-256 -31 0 238 0 238 28 5 c46 10 76 29 86 56
13 39 0 77 -34 94 -28 15 -56 12 -402 -30 -333 -40 -374 -47 -395 -67 -23 -21
-30 -59 -17 -93 8 -20 62 -48 80 -41 12 5 14 -32 14 -234 l0 -240 -22 -4 c-13
-3 -160 -22 -328 -41 l-305 -37 -32 38 c-35 40 -65 110 -91 213 -22 92 -22
370 0 462 27 104 56 173 91 212 l32 36 865 104 c476 58 877 105 892 106 l26 1
-20 -52z m-2390 -83 c1 -1 -9 -42 -23 -91 -70 -241 -74 -520 -9 -763 13 -52
22 -96 20 -99 -3 -2 -32 -1 -65 3 -61 7 -61 7 -82 53 -11 26 -33 90 -47 142
-24 88 -26 110 -26 300 1 218 8 263 64 413 l22 59 72 -7 c39 -4 72 -8 74 -10z
m325 -37 c90 -10 107 -15 103 -28 -2 -8 -16 -43 -31 -78 -57 -136 -68 -203
-69 -397 -1 -194 10 -267 57 -399 l25 -68 -46 6 c-26 3 -77 8 -114 12 l-68 7
-30 78 c-58 150 -65 195 -64 414 0 183 2 208 26 295 37 135 54 170 80 170 12
0 71 -5 131 -12z m1437 -728 c0 -187 -2 -340 -4 -340 -2 0 -27 32 -56 70 -83
112 -127 109 -201 -13 -25 -43 -49 -80 -53 -84 -3 -3 -6 147 -6 334 l0 340
128 15 c70 8 142 16 160 17 l32 1 0 -340z"/>
</g>
</svg>
