<?xml version="1.0" encoding="UTF-8"?>
<!DOCTYPE svg PUBLIC "-//W3C//DTD SVG 1.1//EN" "http://www.w3.org/Graphics/SVG/1.1/DTD/svg11.dtd">
<svg xmlns="http://www.w3.org/2000/svg" version="1.1" width="50px" height="100px" viewBox = '0 0 24 24' style="shape-rendering:geometricPrecision; text-rendering:geometricPrecision; image-rendering:optimizeQuality; fill-rule:evenodd; clip-rule:evenodd" xmlns:xlink="http://www.w3.org/1999/xlink">
<g><path style="opacity:0.945" fill="#000000" d="M 511.5,187.5 C 511.5,190.167 511.5,192.833 511.5,195.5C 509.363,197.962 506.696,199.629 503.5,200.5C 497.978,208.419 495.644,217.252 496.5,227C 495.611,237.074 497.944,246.241 503.5,254.5C 506.91,255.193 509.577,256.86 511.5,259.5C 511.5,262.167 511.5,264.833 511.5,267.5C 509.577,270.14 506.91,271.807 503.5,272.5C 497.978,280.419 495.644,289.252 496.5,299C 495.611,309.074 497.944,318.241 503.5,326.5C 506.91,327.193 509.577,328.86 511.5,331.5C 511.5,334.167 511.5,336.833 511.5,339.5C 508.955,342.501 505.622,344.335 501.5,345C 494.213,354.183 490.046,364.683 489,376.5C 485.981,396.835 488.981,416.168 498,434.5C 501.016,438.092 504.849,440.258 509.5,441C 510.066,441.995 510.733,442.828 511.5,443.5C 511.5,446.167 511.5,448.833 511.5,451.5C 509.918,453.97 507.585,455.47 504.5,456C 480.18,459.017 455.847,461.85 431.5,464.5C 431.667,476.171 431.5,487.838 431,499.5C 429.471,502.516 426.971,503.849 423.5,503.5C 421.366,503.485 419.366,502.985 417.5,502C 412.025,494.358 406.359,486.858 400.5,479.5C 394.498,488.166 388.998,497.166 384,506.5C 382.941,508.659 381.441,510.326 379.5,511.5C 376.833,511.5 374.167,511.5 371.5,511.5C 369.856,510.684 368.69,509.35 368,507.5C 367.5,495.838 367.333,484.171 367.5,472.5C 349.165,474.583 330.832,476.75 312.5,479C 306.5,479.667 300.5,479.667 294.5,479C 204.478,468.497 114.478,457.831 24.5,447C 13.5651,441.043 6.73177,431.876 4,419.5C 2.30755,413.071 0.807552,406.737 -0.5,400.5C -0.5,389.167 -0.5,377.833 -0.5,366.5C 1.18775,351.611 6.52108,338.111 15.5,326C 6.81733,308.847 4.65066,291.013 9,272.5C 10.4395,266.342 12.9395,260.675 16.5,255.5C 5.22187,234.91 3.72187,213.577 12,191.5C 14.3786,184.457 18.8786,179.29 25.5,176C 94.0903,167.176 162.757,159.01 231.5,151.5C 322.543,161.597 413.543,172.097 504.5,183C 507.233,183.904 509.567,185.404 511.5,187.5 Z M 225.5,168.5 C 233.189,168.613 240.855,169.113 248.5,170C 308.329,176.832 367.996,184.165 427.5,192C 388.833,196.667 350.167,201.333 311.5,206C 306.167,206.667 300.833,206.667 295.5,206C 232.671,198.835 170.004,191.168 107.5,183C 147,178.312 186.333,173.479 225.5,168.5 Z M 30.5,192.5 C 40.2786,192.827 49.9452,193.994 59.5,196C 57.7906,200.672 56.6239,205.505 56,210.5C 55.0658,223.576 55.5658,236.576 57.5,249.5C 49.1399,248.997 40.8065,248.164 32.5,247C 28.0924,242.475 25.5924,236.975 25,230.5C 23.0058,217.192 24.8392,204.525 30.5,192.5 Z M 76.5,197.5 C 145.911,205.249 215.244,213.583 284.5,222.5C 278.582,240.274 277.916,258.274 282.5,276.5C 225.194,269.614 167.861,262.948 110.5,256.5C 108.884,241.564 108.05,226.564 108,211.5C 107.5,209.667 106.333,208.5 104.5,208C 97.9227,205.87 93.756,208.036 92,214.5C 91.4761,227.856 91.4761,241.189 92,254.5C 86.6311,253.718 81.2978,252.718 76,251.5C 70.2453,233.443 70.412,215.443 76.5,197.5 Z M 479.5,202.5 C 480.5,202.5 481.5,202.5 482.5,202.5C 477.916,220.726 478.582,238.726 484.5,256.5C 425.411,264.282 366.244,271.615 307,278.5C 304.414,278.498 302.414,277.498 301,275.5C 299.268,271.637 297.934,267.637 297,263.5C 295.62,251.915 296.62,240.582 300,229.5C 300.792,227.413 301.959,225.579 303.5,224C 362.352,217.143 421.019,209.976 479.5,202.5 Z M 193.5,337.5 C 139.796,331.745 86.129,325.579 32.5,319C 28.0924,314.475 25.5924,308.975 25,302.5C 24.3333,294.833 24.3333,287.167 25,279.5C 26.0722,274.617 27.7388,269.95 30,265.5C 31.5691,264.878 33.2358,264.544 35,264.5C 99.8524,272.127 164.686,279.794 229.5,287.5C 225.683,302.921 224.517,318.587 226,334.5C 226.236,336.764 226.736,338.931 227.5,341C 222.792,341.496 218.125,341.162 213.5,340C 209.912,331.566 207.912,322.732 207.5,313.5C 208.755,306.204 209.255,298.871 209,291.5C 204.357,286.547 199.357,286.213 194,290.5C 193.08,293.101 192.413,295.768 192,298.5C 191.098,311.569 191.598,324.569 193.5,337.5 Z M 479.5,274.5 C 480.5,274.5 481.5,274.5 482.5,274.5C 477.944,292.717 478.611,310.717 484.5,328.5C 425.411,336.282 366.244,343.615 307,350.5C 304.414,350.498 302.414,349.498 301,347.5C 299.268,343.637 297.934,339.637 297,335.5C 295.62,323.915 296.62,312.582 300,301.5C 300.792,299.413 301.959,297.579 303.5,296C 362.352,289.143 421.019,281.976 479.5,274.5 Z M 247.5,289.5 C 259.906,290.656 272.239,292.323 284.5,294.5C 278.582,312.274 277.916,330.274 282.5,348.5C 270.201,346.874 257.867,345.541 245.5,344.5C 239.559,325.892 240.225,307.559 247.5,289.5 Z M 29.5,336.5 C 36.0549,336.286 42.3883,337.12 48.5,339C 39.9689,360.72 37.1355,383.22 40,406.5C 40.817,415.254 42.6503,423.754 45.5,432C 40.8428,432.04 36.1761,431.706 31.5,431C 29.3762,429.878 27.5429,428.378 26,426.5C 16.9813,408.168 13.9813,388.835 17,368.5C 18.1444,356.552 22.3111,345.886 29.5,336.5 Z M 66.5,340.5 C 71.2595,340.513 75.9262,341.18 80.5,342.5C 71.9615,364.758 69.1281,387.758 72,411.5C 72.9462,419.902 74.7795,428.068 77.5,436C 73.5384,435.895 69.5384,435.561 65.5,435C 60.8957,426.094 58.0624,416.594 57,406.5C 53.7766,383.495 56.9432,361.495 66.5,340.5 Z M 98.5,344.5 C 134.879,348.19 171.212,352.357 207.5,357C 201.433,372.572 198.766,388.738 199.5,405.5C 198.977,421.174 200.977,436.507 205.5,451.5C 169.059,447.415 132.726,442.748 96.5,437.5C 90.3298,423.313 87.6631,408.48 88.5,393C 87.6412,375.94 90.9745,359.773 98.5,344.5 Z M 471.5,347.5 C 473.833,347.5 476.167,347.5 478.5,347.5C 467.082,378.95 468.082,409.95 481.5,440.5C 464.969,443.56 448.302,445.893 431.5,447.5C 431.5,431.833 431.5,416.167 431.5,400.5C 442.815,400.71 446.315,395.71 442,385.5C 437.391,383.49 432.558,382.99 427.5,384C 405.823,386.585 384.156,389.251 362.5,392C 355.099,396.926 354.765,402.259 361.5,408C 363.473,408.495 365.473,408.662 367.5,408.5C 367.5,424.167 367.5,439.833 367.5,455.5C 347.165,457.75 326.831,460.083 306.5,462.5C 302.719,463.173 299.886,461.839 298,458.5C 290.815,445.075 287.648,430.742 288.5,415.5C 287.648,400.258 290.815,385.925 298,372.5C 299.543,370.622 301.376,369.122 303.5,368C 359.685,361.476 415.685,354.643 471.5,347.5 Z M 225.5,358.5 C 229.776,359.31 234.109,359.977 238.5,360.5C 231.838,382.682 229.671,405.348 232,428.5C 233.155,437.616 235.322,446.45 238.5,455C 234.901,454.824 231.234,454.491 227.5,454C 224.062,449.392 221.562,444.225 220,438.5C 212.894,411.173 214.728,384.507 225.5,358.5 Z M 278.5,459.5 C 271.468,459.126 264.468,458.459 257.5,457.5C 244.511,425.986 244.178,394.319 256.5,362.5C 264.974,363.107 273.308,364.44 281.5,366.5C 268.082,397.05 267.082,428.05 278.5,459.5 Z M 412.5,402.5 C 413.5,402.5 414.5,402.5 415.5,402.5C 415.667,424.836 415.5,447.169 415,469.5C 411.469,465.603 408.303,461.436 405.5,457C 401.219,454.891 397.052,455.058 393,457.5C 390,462.5 387,467.5 384,472.5C 383.5,450.503 383.333,428.503 383.5,406.5C 393.355,405.561 403.022,404.228 412.5,402.5 Z"/></g>
</svg>
