<?xml version="1.0" standalone="no"?>
<!DOCTYPE svg PUBLIC "-//W3C//DTD SVG 20010904//EN"
 "http://www.w3.org/TR/2001/REC-SVG-20010904/DTD/svg10.dtd">
<svg version="1.0" xmlns="http://www.w3.org/2000/svg"
 width="50%" height="50%" viewBox="0 0 512.000000 512.000000"
 preserveAspectRatio="xMidYMid meet">

<g transform="translate(0.000000,512.000000) scale(0.100000,-0.100000)"
fill="current" stroke="none">
<path d="M610 4784 c-30 -8 -73 -26 -96 -39 -61 -36 -139 -126 -166 -193 l-23
-57 0 -895 0 -895 23 -57 c27 -67 103 -155 167 -192 96 -57 100 -57 871 -54
l709 3 57 23 c67 27 155 103 192 166 57 97 56 87 56 1006 0 919 1 909 -56
1006 -37 63 -125 139 -192 166 l-57 23 -715 2 c-606 2 -723 0 -770 -13z m1445
-329 l25 -24 0 -831 0 -831 -25 -24 -24 -25 -671 0 -671 0 -24 25 -25 24 0
831 0 831 25 24 24 25 671 0 671 0 24 -25z"/>
<path d="M3010 4784 c-30 -8 -73 -26 -96 -39 -61 -36 -139 -126 -166 -193
l-23 -57 0 -575 0 -575 23 -57 c27 -67 103 -155 167 -192 96 -57 100 -57 871
-54 l709 3 57 23 c67 27 155 103 192 166 54 93 56 116 56 686 0 570 -2 593
-56 686 -37 63 -125 139 -192 166 l-57 23 -715 2 c-606 2 -723 0 -770 -13z
m1445 -329 l25 -24 0 -511 0 -511 -25 -24 -24 -25 -671 0 -671 0 -24 25 -25
24 0 511 0 511 25 24 24 25 671 0 671 0 24 -25z"/>
<path d="M3010 2704 c-30 -8 -73 -26 -96 -39 -61 -36 -139 -126 -166 -193
l-23 -57 0 -895 0 -895 23 -57 c27 -67 103 -155 167 -192 96 -57 100 -57 871
-54 l709 3 57 23 c67 27 155 103 192 166 57 97 56 87 56 1006 0 919 1 909 -56
1006 -37 63 -125 139 -192 166 l-57 23 -715 2 c-606 2 -723 0 -770 -13z m1445
-329 l25 -24 0 -831 0 -831 -25 -24 -24 -25 -671 0 -671 0 -24 25 -25 24 0
831 0 831 25 24 24 25 671 0 671 0 24 -25z"/>
<path d="M610 2064 c-30 -8 -73 -26 -96 -39 -61 -36 -139 -126 -166 -193 l-23
-57 0 -575 0 -575 23 -57 c27 -67 103 -155 167 -192 96 -57 100 -57 871 -54
l709 3 57 23 c67 27 155 103 192 166 54 93 56 116 56 686 0 570 -2 593 -56
686 -37 63 -125 139 -192 166 l-57 23 -715 2 c-606 2 -723 0 -770 -13z m1445
-329 l25 -24 0 -511 0 -511 -25 -24 -24 -25 -671 0 -671 0 -24 25 -25 24 0
511 0 511 25 24 24 25 671 0 671 0 24 -25z"/>
</g>
</svg>
