<?xml version="1.0" encoding="UTF-8"?>
<!DOCTYPE svg PUBLIC "-//W3C//DTD SVG 1.1//EN" "http://www.w3.org/Graphics/SVG/1.1/DTD/svg11.dtd">
<svg xmlns="http://www.w3.org/2000/svg" version="1.1" width="100%" height="100%" viewBox = "0 0 24 24" viewPorstyle="shape-rendering:geometricPrecision; text-rendering:geometricPrecision; image-rendering:optimizeQuality; fill-rule:evenodd; clip-rule:evenodd" xmlns:xlink="http://www.w3.org/1999/xlink">
<g><path style="opacity:1" fill="#1a2d56" d="M 1675.5,-0.5 C 1675.83,-0.5 1676.17,-0.5 1676.5,-0.5C 1701.18,35.0035 1733.51,61.1701 1773.5,78C 1808.17,91.8676 1844.17,99.8676 1881.5,102C 1926.81,108.501 1967.81,125.167 2004.5,152C 2041.52,183.514 2065.68,223.014 2077,270.5C 2081.91,304.055 2077.57,336.388 2064,367.5C 2043.93,407.055 2011.6,428.055 1967,430.5C 1945.17,428.532 1923.67,425.032 1902.5,420C 1924.5,442 1946.5,464 1968.5,486C 1945.17,486.667 1921.83,486.667 1898.5,486C 1835.67,423.167 1772.83,360.333 1710,297.5C 1708.76,273.454 1707.26,249.454 1705.5,225.5C 1706,224.479 1706.67,224.312 1707.5,225C 1735,252.5 1762.5,280 1790,307.5C 1788.69,290.887 1790.36,274.553 1795,258.5C 1809.3,223.227 1835.46,207.394 1873.5,211C 1913.88,217.873 1934.88,241.706 1936.5,282.5C 1936.33,286.5 1936.17,290.5 1936,294.5C 1932.89,302.586 1931.56,310.92 1932,319.5C 1935.15,322.948 1938.65,323.115 1942.5,320C 1947.99,317.168 1951.16,312.668 1952,306.5C 1961.21,257.079 1943.37,221.245 1898.5,199C 1868.59,187.364 1839.92,190.031 1812.5,207C 1774.92,220.283 1740.26,214.95 1708.5,191C 1681.15,164.781 1666.31,132.614 1664,94.5C 1662.73,71.3481 1664.06,48.3481 1668,25.5C 1669.6,16.5404 1672.1,7.87377 1675.5,-0.5 Z"/></g>
<g><path style="opacity:1" fill="#1a2d56" d="M 952.5,107.5 C 954.833,107.5 957.167,107.5 959.5,107.5C 927.404,189.246 869.738,244.412 786.5,273C 813.653,274.83 838.986,282.497 862.5,296C 828.872,297.354 795.205,298.188 761.5,298.5C 753.167,298.333 744.833,298.167 736.5,298C 735.313,296.981 734.313,295.814 733.5,294.5C 761.125,227.384 805.792,174.884 867.5,137C 894.252,122.251 922.586,112.417 952.5,107.5 Z"/></g>
<g><path style="opacity:1" fill="#1a2d56" d="M 1133.5,107.5 C 1184.13,113.658 1228.8,133.158 1267.5,166C 1307.67,201.173 1338.17,243.34 1359,292.5C 1359.68,294.976 1358.85,296.809 1356.5,298C 1348.17,298.167 1339.83,298.333 1331.5,298.5C 1297.8,298.181 1264.13,297.347 1230.5,296C 1254.09,282.766 1279.43,275.099 1306.5,273C 1228.84,246.007 1172.67,195.174 1138,120.5C 1136.19,116.244 1134.69,111.911 1133.5,107.5 Z"/></g>
<g><path style="opacity:1" fill="#1a2d56" d="M 1312.5,133.5 C 1375.56,152.399 1425.06,189.399 1461,244.5C 1482.68,278.027 1498.51,314.193 1508.5,353C 1468.94,376.41 1426.61,392.743 1381.5,402C 1370.57,403.76 1359.57,404.593 1348.5,404.5C 1348.5,383.5 1348.5,362.5 1348.5,341.5C 1385.47,329.892 1423.13,326.725 1461.5,332C 1383.43,287.437 1333.76,221.27 1312.5,133.5 Z"/></g>
<g><path style="opacity:1" fill="#1a2d56" d="M 774.5,140.5 C 775.873,140.343 777.207,140.51 778.5,141C 761.028,216.67 721.695,278.003 660.5,325C 651.099,331.396 641.432,337.396 631.5,343C 655.458,341.573 679.458,341.24 703.5,342C 722.789,343.558 741.789,346.725 760.5,351.5C 759.876,372.172 759.209,392.839 758.5,413.5C 698.39,409.472 641.723,393.305 588.5,365C 602.231,297.205 634.231,239.538 684.5,192C 711.04,168.893 741.04,151.727 774.5,140.5 Z"/></g>
<g><path style="opacity:1" fill="#1a2d56" d="M 140.5,157.5 C 180.421,155.306 215.421,167.14 245.5,193C 290.694,237.861 335.528,283.028 380,328.5C 363.161,349.115 349.827,372.115 340,397.5C 336.781,405.986 334.281,414.652 332.5,423.5C 331.448,423.649 330.448,423.483 329.5,423C 247.306,340.473 164.806,258.306 82,176.5C 81.5498,173.936 82.7164,172.436 85.5,172C 103.261,164.478 121.594,159.645 140.5,157.5 Z"/></g>
<g><path style="opacity:1" fill="#1a2d56" d="M 66.5,191.5 C 138.812,263.146 210.812,335.146 282.5,407.5C 203.835,408.667 125.169,408.833 46.5,408C 27.4831,370.432 18.6497,330.598 20,288.5C 22.4289,249.621 37.9289,217.287 66.5,191.5 Z"/></g>
<g><path style="opacity:1" fill="#1a2d56" d="M 1487.5,193.5 C 1542.97,220.057 1583.47,261.39 1609,317.5C 1615.49,331.976 1620.99,346.81 1625.5,362C 1612.35,376.318 1598.68,390.152 1584.5,403.5C 1529.55,354.945 1497.72,293.945 1489,220.5C 1487.89,211.533 1487.39,202.533 1487.5,193.5 Z"/></g>
<g><path style="opacity:1" fill="#1a2d56" d="M 602.5,204.5 C 601.435,280.493 575.268,346.827 524,403.5C 514.465,412.704 504.632,421.537 494.5,430C 521.195,422.063 548.529,417.063 576.5,415C 619.259,411.085 659.593,419.085 697.5,439C 701.713,441.6 705.713,444.433 709.5,447.5C 689.048,461.825 666.382,470.992 641.5,475C 592.803,482.404 544.469,480.404 496.5,469C 483.08,465.812 469.746,462.312 456.5,458.5C 458.846,390.293 480.013,328.627 520,273.5C 542.863,244.79 570.363,221.79 602.5,204.5 Z"/></g>
<g><path style="opacity:1" fill="#1a2d56" d="M 1042.5,210.5 C 1060.13,210.957 1068.63,219.957 1068,237.5C 1062.21,253.807 1051.04,258.973 1034.5,253C 1022.98,244.355 1020.48,233.522 1027,220.5C 1030.9,214.98 1036.07,211.647 1042.5,210.5 Z"/></g>
<g><path style="opacity:1" fill="#1a2d56" d="M 1149.5,224.5 C 1159.84,224.334 1170.17,224.5 1180.5,225C 1207.56,228.259 1226.9,242.092 1238.5,266.5C 1223.92,275.103 1208.09,279.103 1191,278.5C 1152.74,276.359 1117.91,264.359 1086.5,242.5C 1106.73,233.529 1127.73,227.529 1149.5,224.5 Z"/></g>
<g><path style="opacity:1" fill="#1a2d56" d="M 920.5,228.5 C 949.95,227.824 978.284,232.991 1005.5,244C 973.596,268.248 937.596,281.748 897.5,284.5C 884.38,284.258 871.713,281.758 859.5,277C 857.445,276.313 855.779,275.146 854.5,273.5C 861.635,255.198 874.302,242.365 892.5,235C 901.751,231.854 911.084,229.687 920.5,228.5 Z"/></g>
<g><path style="opacity:1" fill="#1a2d56" d="M 1378.5,289.5 C 1390.55,288.876 1397.55,294.542 1399.5,306.5C 1395.74,322.548 1386.4,327.048 1371.5,320C 1364.98,313.049 1363.82,305.216 1368,296.5C 1371,293.262 1374.5,290.929 1378.5,289.5 Z"/></g>
<g><path style="opacity:1" fill="#1a2d56" d="M 443.5,297.5 C 455.553,376.706 439.053,449.706 394,516.5C 388.167,523.667 382.333,530.833 376.5,538C 397.427,528.129 419.094,519.795 441.5,513C 485.033,499.922 528.7,499.255 572.5,511C 578.766,513.135 584.766,515.801 590.5,519C 573.138,535.689 553.138,548.356 530.5,557C 485.166,572.81 438.499,579.476 390.5,577C 374.449,576.419 358.449,575.252 342.5,573.5C 333.188,502.702 345.021,435.702 378,372.5C 395.185,343.481 417.018,318.481 443.5,297.5 Z"/></g>
<g><path style="opacity:1" fill="#1a2d56" d="M 710.5,298.5 C 729.068,298.964 735.234,307.964 729,325.5C 719.612,334.82 710.278,334.82 701,325.5C 695.192,313.149 698.359,304.149 710.5,298.5 Z"/></g>
<g><path style="opacity:1" fill="#1a2d56" d="M 783.5,316.5 C 961.833,316.5 1140.17,316.5 1318.5,316.5C 1318.67,507.167 1318.5,697.834 1318,888.5C 1315.91,942.082 1300.58,991.416 1272,1036.5C 1229.16,1095.21 1171.33,1129.04 1098.5,1138C 1039.57,1146.34 982.567,1139.34 927.5,1117C 861.3,1086.13 817.8,1035.63 797,965.5C 789.858,940.65 785.525,915.317 784,889.5C 783.5,698.5 783.333,507.5 783.5,316.5 Z M 912.5,396.5 C 995.833,396.5 1079.17,396.5 1162.5,396.5C 1162.5,434.833 1162.5,473.167 1162.5,511.5C 1190.17,511.5 1217.83,511.5 1245.5,511.5C 1245.5,538.5 1245.5,565.5 1245.5,592.5C 1218.5,592.5 1191.5,592.5 1164.5,592.5C 1164.5,605.167 1164.5,617.833 1164.5,630.5C 1191.5,630.5 1218.5,630.5 1245.5,630.5C 1245.5,660.167 1245.5,689.833 1245.5,719.5C 1218.5,719.5 1191.5,719.5 1164.5,719.5C 1164.5,809.167 1164.5,898.833 1164.5,988.5C 1141.83,988.667 1119.16,988.5 1096.5,988C 1064.67,956.167 1032.83,924.333 1001,892.5C 971.986,921.68 942.82,950.68 913.5,979.5C 892.5,959.167 871.833,938.5 851.5,917.5C 899.153,869.347 946.986,821.347 995,773.5C 1019.68,798.347 1044.51,823.014 1069.5,847.5C 1070.5,723.502 1070.83,599.502 1070.5,475.5C 1017.83,475.5 965.167,475.5 912.5,475.5C 912.5,449.167 912.5,422.833 912.5,396.5 Z"/></g>
<g><path style="opacity:1" fill="#1a2d56" d="M 1693.5,325.5 C 1753.15,384.479 1812.48,443.812 1871.5,503.5C 1816.51,558.32 1761.35,612.987 1706,667.5C 1649.1,611.267 1592.27,555.1 1535.5,499C 1536.99,496.844 1538.49,494.677 1540,492.5C 1591.74,437.263 1642.91,381.597 1693.5,325.5 Z"/></g>
<g><path style="opacity:1" fill="#1a2d56" d="M 1477.5,405.5 C 1510.74,403.558 1543.41,406.891 1575.5,415.5C 1559.38,433.123 1542.71,450.29 1525.5,467C 1497.02,469.733 1468.69,468.733 1440.5,464C 1420.89,460.36 1403.56,452.193 1388.5,439.5C 1405.97,425.766 1425.64,416.266 1447.5,411C 1457.58,408.822 1467.58,406.989 1477.5,405.5 Z"/></g>
<g><path style="opacity:1" fill="#1a2d56" d="M 302.5,417.5 C 303.75,417.577 304.583,418.244 305,419.5C 330.643,505.697 321.977,588.031 279,666.5C 317.767,635.705 361.601,615.539 410.5,606C 428.455,603.174 446.455,602.841 464.5,605C 471.747,605.914 478.747,607.58 485.5,610C 470.612,630.888 451.945,647.554 429.5,660C 385.691,683.379 339.024,697.712 289.5,703C 276.529,704.553 263.529,705.72 250.5,706.5C 231.494,644.227 229.994,581.561 246,518.5C 257.102,480.276 275.935,446.61 302.5,417.5 Z"/></g>
<g><path style="opacity:1" fill="#1a2d56" d="M 55.5,426.5 C 124.503,426.167 193.503,426.5 262.5,427.5C 238.441,460.292 221.941,496.625 213,536.5C 211.197,548.766 210.03,561.099 209.5,573.5C 171.462,542.303 134.462,509.803 98.5,476C 82.858,461.698 68.6914,446.198 56,429.5C 55.5172,428.552 55.3505,427.552 55.5,426.5 Z"/></g>
<g><path style="opacity:1" fill="#1a2d56" d="M 441.5,466.5 C 457.869,467.229 464.036,475.562 460,491.5C 453.8,500.718 445.633,502.884 435.5,498C 424.858,488.426 424.858,478.76 435.5,469C 437.611,468.155 439.611,467.322 441.5,466.5 Z"/></g>
<g><path style="opacity:1" fill="#1a2d56" d="M 1494.5,508.5 C 1560.75,573.25 1626.58,638.583 1692,704.5C 1692.67,705.167 1692.67,705.833 1692,706.5C 1679,719.5 1666,732.5 1653,745.5C 1588.67,681.167 1524.33,616.833 1460,552.5C 1460.04,550.721 1460.71,549.055 1462,547.5C 1473.04,534.627 1483.88,521.627 1494.5,508.5 Z"/></g>
<g><path style="opacity:1" fill="#1a2d56" d="M 1914.5,538.5 C 1940.6,576.281 1955.1,618.281 1958,664.5C 1960.96,723.366 1949.46,779.199 1923.5,832C 1863.27,821.709 1808.27,799.042 1758.5,764C 1740.6,749.77 1725.1,733.27 1712,714.5C 1709.6,710.365 1707.76,706.032 1706.5,701.5C 1742.61,698.555 1776.94,705.055 1809.5,721C 1844.28,738.435 1875.11,761.268 1902,789.5C 1874.43,714.202 1874.76,638.869 1903,563.5C 1906.3,554.901 1910.13,546.568 1914.5,538.5 Z"/></g>
<g><path style="opacity:1" fill="#1a2d56" d="M 585.5,547.5 C 586.833,565.321 587.5,583.488 587.5,602C 587.167,620.167 586.833,638.333 586.5,656.5C 560.174,632.84 534.174,608.84 508.5,584.5C 531.994,579.282 553.994,570.449 574.5,558C 578.668,554.998 582.335,551.498 585.5,547.5 Z"/></g>
<g><path style="opacity:1" fill="#1a2d56" d="M 1863.5,549.5 C 1865.08,554.234 1865.91,559.234 1866,564.5C 1868.68,606.217 1864.51,647.217 1853.5,687.5C 1814.84,686.525 1776.84,681.025 1739.5,671C 1739.04,670.586 1738.71,670.086 1738.5,669.5C 1754.16,654.027 1770.16,639.027 1786.5,624.5C 1799.47,631.32 1811.8,639.153 1823.5,648C 1824.17,648.667 1824.83,648.667 1825.5,648C 1816.75,635.347 1809.42,621.847 1803.5,607.5C 1823.53,588.16 1843.53,568.826 1863.5,549.5 Z"/></g>
<g><path style="opacity:1" fill="#1a2d56" d="M 608.5,567.5 C 657.417,614.916 705.917,662.916 754,711.5C 754.833,748.838 754.667,786.171 753.5,823.5C 705.181,776.348 657.014,729.014 609,681.5C 608.5,643.501 608.333,605.501 608.5,567.5 Z"/></g>
<g><path style="opacity:1" fill="#1a2d56" d="M 176.5,572.5 C 185.473,579.308 193.973,586.642 202,594.5C 228.508,666.064 229.175,737.731 204,809.5C 237.77,771.866 278.27,744.033 325.5,726C 330.821,724.219 336.154,722.885 341.5,722C 352.678,732.345 363.678,742.845 374.5,753.5C 358.441,771.728 340.108,787.228 319.5,800C 277.563,824.873 232.73,842.707 185,853.5C 181.84,849.188 179.173,844.521 177,839.5C 152.069,781.912 142.735,721.912 149,659.5C 153.059,628.826 162.226,599.826 176.5,572.5 Z"/></g>
<g><path style="opacity:1" fill="#1a2d56" d="M 1454.5,589.5 C 1455.55,589.351 1456.55,589.517 1457.5,590C 1510.01,643.014 1562.35,696.181 1614.5,749.5C 1546.01,818.486 1477.35,887.32 1408.5,956C 1383.5,956.667 1358.5,956.667 1333.5,956C 1339.03,941.011 1342.53,925.511 1344,909.5C 1343.55,843.17 1343.55,776.836 1344,710.5C 1381.06,670.276 1417.9,629.943 1454.5,589.5 Z"/></g>
<g><path style="opacity:1" fill="#1a2d56" d="M 509.5,613.5 C 549.096,651.429 588.096,690.096 626.5,729.5C 543.171,730.91 459.838,731.41 376.5,731C 369.136,723.302 361.47,715.969 353.5,709C 419.094,698.733 471.094,666.899 509.5,613.5 Z"/></g>
<g><path style="opacity:1" fill="#1a2d56" d="M 2008.5,697.5 C 2010.41,697.574 2011.58,698.574 2012,700.5C 2035.46,757.963 2038.8,816.629 2022,876.5C 2010.47,917.226 1992.3,954.559 1967.5,988.5C 1919.34,969.775 1875.68,943.941 1836.5,911C 1813.35,890.862 1795.18,867.029 1782,839.5C 1779.45,833.697 1777.62,827.697 1776.5,821.5C 1812.68,824.429 1845.34,836.596 1874.5,858C 1905.83,881.331 1932.33,909.165 1954,941.5C 1938.43,852.48 1956.59,771.147 2008.5,697.5 Z"/></g>
<g><path style="opacity:1" fill="#1a2d56" d="M 1852.5,698.5 C 1869.32,699.817 1875.16,708.483 1870,724.5C 1864.27,732.405 1856.77,734.572 1847.5,731C 1837.8,723.92 1835.97,715.087 1842,704.5C 1845.07,701.554 1848.57,699.554 1852.5,698.5 Z"/></g>
<g><path style="opacity:1" fill="#1a2d56" d="M 243.5,717.5 C 260.662,716.821 267.495,724.821 264,741.5C 258.889,750.33 251.389,753.163 241.5,750C 229.989,741.756 228.656,732.089 237.5,721C 239.727,720.059 241.727,718.892 243.5,717.5 Z"/></g>
<g><path style="opacity:1" fill="#1a2d56" d="M 93.5,719.5 C 133.832,770.626 155.998,828.959 160,894.5C 160.667,903.5 160.667,912.5 160,921.5C 159.027,935.248 157.694,948.915 156,962.5C 183.362,917.804 219.862,882.638 265.5,857C 285.929,846.468 307.596,840.301 330.5,838.5C 327.161,853.514 321.328,867.514 313,880.5C 292.585,910.916 267.418,936.749 237.5,958C 208.702,978.072 178.035,995.072 145.5,1009C 144.5,1009.67 143.5,1009.67 142.5,1009C 93.679,945.531 71.179,873.697 75,793.5C 77.4091,767.864 83.5757,743.197 93.5,719.5 Z"/></g>
<g><path style="opacity:1" fill="#1a2d56" d="M 395.5,748.5 C 479.332,747.334 563.332,747.168 647.5,748C 683,783.5 718.5,819 754,854.5C 754.5,862.493 754.666,870.493 754.5,878.5C 682.166,878.667 609.833,878.5 537.5,878C 490.296,834.627 442.963,791.46 395.5,748.5 Z"/></g>
<g><path style="opacity:1" fill="#1a2d56" d="M 2075.5,869.5 C 2076.88,869.962 2077.55,870.962 2077.5,872.5C 2090.73,931.113 2084.9,987.78 2060,1042.5C 2041.27,1082.89 2015.94,1118.56 1984,1149.5C 1941.86,1123.73 1904.53,1092.06 1872,1054.5C 1853.01,1031.2 1838.68,1005.2 1829,976.5C 1826.66,968.309 1825.16,959.976 1824.5,951.5C 1855.76,959.291 1883.09,974.125 1906.5,996C 1937.47,1026.42 1961.64,1061.59 1979,1101.5C 1978.55,1010.28 2010.72,932.948 2075.5,869.5 Z"/></g>
<g><path style="opacity:1" fill="#1a2d56" d="M 31.5,893.5 C 87.7827,944.381 121.283,1007.71 132,1083.5C 133.088,1097.14 133.755,1110.81 134,1124.5C 152.146,1078.68 179.312,1039.18 215.5,1006C 236.158,988.837 259.491,976.67 285.5,969.5C 282.926,994.391 275.426,1017.72 263,1039.5C 243.118,1072.36 218.618,1101.52 189.5,1127C 170.835,1142.67 151.335,1157.17 131,1170.5C 90.4854,1134.27 60.4854,1090.61 41,1039.5C 23.8101,991.686 20.6435,943.019 31.5,893.5 Z"/></g>
<g><path style="opacity:1" fill="#1a2d56" d="M 554.5,898.5 C 622.334,897.512 690.334,897.512 758.5,898.5C 758.002,914.579 758.836,930.579 761,946.5C 761.375,949 762.208,951.333 763.5,953.5C 714.837,954.667 666.17,954.833 617.5,954C 596.925,934.92 575.925,916.42 554.5,898.5 Z"/></g>
<g><path style="opacity:1" fill="#1a2d56" d="M 583.5,981.5 C 646.501,981.333 709.501,981.5 772.5,982C 807.558,1077.05 874.558,1136.05 973.5,1159C 997.574,1164.06 1021.91,1166.9 1046.5,1167.5C 1046.83,1370.17 1046.5,1572.83 1045.5,1775.5C 1022.99,1758.91 997.987,1747.75 970.5,1742C 841.5,1741.5 712.5,1741.33 583.5,1741.5C 583.5,1488.17 583.5,1234.83 583.5,981.5 Z M 644.5,1190.5 C 656.747,1190.18 668.914,1190.51 681,1191.5C 690.827,1230.14 700.327,1268.81 709.5,1307.5C 717.569,1268.56 726.902,1229.89 737.5,1191.5C 749.5,1190.17 761.5,1190.17 773.5,1191.5C 756.753,1250.74 740.42,1310.07 724.5,1369.5C 714.405,1370.13 704.572,1369.46 695,1367.5C 677.853,1308.56 661.02,1249.56 644.5,1190.5 Z M 774.5,1190.5 C 798.167,1190.5 821.833,1190.5 845.5,1190.5C 845.5,1201.17 845.5,1211.83 845.5,1222.5C 833.5,1222.5 821.5,1222.5 809.5,1222.5C 809.5,1236.17 809.5,1249.83 809.5,1263.5C 820.167,1263.5 830.833,1263.5 841.5,1263.5C 841.5,1274.17 841.5,1284.83 841.5,1295.5C 830.833,1295.5 820.167,1295.5 809.5,1295.5C 809.5,1309.5 809.5,1323.5 809.5,1337.5C 821.5,1337.5 833.5,1337.5 845.5,1337.5C 845.5,1348.17 845.5,1358.83 845.5,1369.5C 821.833,1369.5 798.167,1369.5 774.5,1369.5C 774.5,1309.83 774.5,1250.17 774.5,1190.5 Z M 853.5,1190.5 C 870.17,1190.33 886.837,1190.5 903.5,1191C 934.822,1193.65 951.155,1210.65 952.5,1242C 951.591,1262.17 942.924,1277.83 926.5,1289C 936.642,1315.76 946.975,1342.43 957.5,1369C 945.171,1369.5 932.838,1369.67 920.5,1369.5C 910.764,1341.63 900.431,1313.96 889.5,1286.5C 888.5,1314.16 888.167,1341.83 888.5,1369.5C 876.833,1369.5 865.167,1369.5 853.5,1369.5C 853.5,1309.83 853.5,1250.17 853.5,1190.5 Z M 965.5,1190.5 C 977.167,1190.5 988.833,1190.5 1000.5,1190.5C 1000.5,1250.17 1000.5,1309.83 1000.5,1369.5C 988.833,1369.5 977.167,1369.5 965.5,1369.5C 965.5,1309.83 965.5,1250.17 965.5,1190.5 Z M 939.5,1407.5 C 953.579,1405.88 966.746,1408.55 979,1415.5C 979.667,1426.5 979.667,1437.5 979,1448.5C 967.875,1437.98 955.375,1435.82 941.5,1442C 940.213,1443.41 939.046,1444.91 938,1446.5C 933.681,1459.88 937.181,1470.71 948.5,1479C 960.62,1486.64 971.453,1495.81 981,1506.5C 991.14,1522.82 993.14,1540.15 987,1558.5C 978.624,1580.37 962.624,1591.71 939,1592.5C 928.303,1592.2 918.469,1589.2 909.5,1583.5C 908.334,1572.52 908.168,1561.52 909,1550.5C 921.117,1560.12 934.284,1561.95 948.5,1556C 959.112,1544.74 959.112,1533.4 948.5,1522C 934.837,1514 922.67,1504.17 912,1492.5C 902.56,1477.36 899.894,1461.02 904,1443.5C 908.717,1424.28 920.55,1412.28 939.5,1407.5 Z M 670.5,1410.5 C 700.833,1410.5 731.167,1410.5 761.5,1410.5C 761.5,1421.17 761.5,1431.83 761.5,1442.5C 751.833,1442.5 742.167,1442.5 732.5,1442.5C 732.5,1491.5 732.5,1540.5 732.5,1589.5C 721.167,1589.5 709.833,1589.5 698.5,1589.5C 698.5,1540.5 698.5,1491.5 698.5,1442.5C 689.167,1442.5 679.833,1442.5 670.5,1442.5C 670.5,1431.83 670.5,1421.17 670.5,1410.5 Z M 810.5,1410.5 C 822.833,1410.5 835.167,1410.5 847.5,1410.5C 861.659,1470.13 875.659,1529.8 889.5,1589.5C 877.482,1589.83 865.482,1589.5 853.5,1588.5C 851.021,1579.25 848.854,1569.92 847,1560.5C 834.562,1559.18 822.062,1559.18 809.5,1560.5C 806.987,1570.07 804.987,1579.73 803.5,1589.5C 791.829,1589.67 780.162,1589.5 768.5,1589C 782.732,1529.57 796.732,1470.07 810.5,1410.5 Z"/></g>
<g><path style="opacity:1" fill="#1a2d56" d="M 1327.5,981.5 C 1396.17,981.5 1464.83,981.5 1533.5,981.5C 1533.5,1234.83 1533.5,1488.17 1533.5,1741.5C 1402.5,1741.33 1271.5,1741.5 1140.5,1742C 1114.02,1746.24 1091.02,1757.41 1071.5,1775.5C 1070.5,1571.17 1070.17,1366.83 1070.5,1162.5C 1176.01,1159.37 1255.51,1112.7 1309,1022.5C 1316.62,1009.46 1322.79,995.794 1327.5,981.5 Z M 1117.5,1191.5 C 1129.17,1191.5 1140.83,1191.5 1152.5,1191.5C 1152.5,1240.5 1152.5,1289.5 1152.5,1338.5C 1164.83,1338.5 1177.17,1338.5 1189.5,1338.5C 1189.5,1349.17 1189.5,1359.83 1189.5,1370.5C 1165.5,1370.5 1141.5,1370.5 1117.5,1370.5C 1117.5,1310.83 1117.5,1251.17 1117.5,1191.5 Z M 1217.5,1191.5 C 1228.83,1191.5 1240.17,1191.5 1251.5,1191.5C 1251.33,1234.5 1251.5,1277.5 1252,1320.5C 1252.91,1340.38 1262.74,1346.88 1281.5,1340C 1285.73,1335.71 1287.89,1330.55 1288,1324.5C 1288.5,1280.17 1288.67,1235.83 1288.5,1191.5C 1299.83,1191.5 1311.17,1191.5 1322.5,1191.5C 1322.97,1241.87 1322.47,1292.2 1321,1342.5C 1316.21,1358.96 1305.38,1368.79 1288.5,1372C 1276.5,1374 1264.5,1374 1252.5,1372C 1234.86,1368.35 1223.69,1357.85 1219,1340.5C 1217.52,1290.87 1217.02,1241.21 1217.5,1191.5 Z M 1353.5,1191.5 C 1366.17,1191.33 1378.84,1191.5 1391.5,1192C 1399.45,1209.01 1406.11,1226.51 1411.5,1244.5C 1414.03,1235.42 1416.86,1226.42 1420,1217.5C 1423.8,1208.91 1427.3,1200.25 1430.5,1191.5C 1442.83,1191.5 1455.17,1191.5 1467.5,1191.5C 1454.98,1220.41 1442.64,1249.41 1430.5,1278.5C 1443.44,1308.98 1456.77,1339.31 1470.5,1369.5C 1457.17,1370.83 1443.83,1370.83 1430.5,1369.5C 1422.81,1351.75 1416.14,1333.75 1410.5,1315.5C 1405.29,1334.12 1399.29,1352.46 1392.5,1370.5C 1379.48,1370.83 1366.48,1370.5 1353.5,1369.5C 1366.26,1339.16 1378.59,1308.66 1390.5,1278C 1378.26,1249.12 1365.93,1220.28 1353.5,1191.5 Z M 1123.5,1411.5 C 1138.85,1411.17 1154.18,1411.5 1169.5,1412.5C 1175.39,1447.51 1181.39,1482.51 1187.5,1517.5C 1193.32,1482.31 1198.32,1446.98 1202.5,1411.5C 1218.17,1411.5 1233.83,1411.5 1249.5,1411.5C 1255.91,1471.15 1262.24,1530.82 1268.5,1590.5C 1256.5,1590.5 1244.5,1590.5 1232.5,1590.5C 1230.38,1547.09 1227.38,1503.76 1223.5,1460.5C 1217.42,1503.67 1210.25,1546.67 1202,1589.5C 1197.58,1590.15 1193.08,1590.49 1188.5,1590.5C 1183.75,1590.47 1179.25,1589.8 1175,1588.5C 1165.71,1546.07 1157.71,1503.4 1151,1460.5C 1148.56,1503.81 1146.72,1547.14 1145.5,1590.5C 1133.17,1590.5 1120.83,1590.5 1108.5,1590.5C 1113.22,1530.81 1118.22,1471.14 1123.5,1411.5 Z M 1290.5,1411.5 C 1314.17,1411.5 1337.83,1411.5 1361.5,1411.5C 1361.5,1422.17 1361.5,1432.83 1361.5,1443.5C 1349.5,1443.5 1337.5,1443.5 1325.5,1443.5C 1325.5,1456.83 1325.5,1470.17 1325.5,1483.5C 1336.17,1483.5 1346.83,1483.5 1357.5,1483.5C 1357.5,1494.5 1357.5,1505.5 1357.5,1516.5C 1346.83,1516.5 1336.17,1516.5 1325.5,1516.5C 1325.5,1530.5 1325.5,1544.5 1325.5,1558.5C 1337.5,1558.5 1349.5,1558.5 1361.5,1558.5C 1361.5,1569.17 1361.5,1579.83 1361.5,1590.5C 1337.83,1590.5 1314.17,1590.5 1290.5,1590.5C 1290.5,1530.83 1290.5,1471.17 1290.5,1411.5 Z M 1418.5,1411.5 C 1430.83,1411.5 1443.17,1411.5 1455.5,1411.5C 1469.5,1471.17 1483.5,1530.83 1497.5,1590.5C 1485.5,1590.67 1473.5,1590.5 1461.5,1590C 1458.98,1580.57 1456.65,1571.07 1454.5,1561.5C 1441.94,1560.18 1429.44,1560.18 1417,1561.5C 1414.71,1571.09 1412.88,1580.76 1411.5,1590.5C 1399.83,1590.67 1388.16,1590.5 1376.5,1590C 1390.74,1530.55 1404.74,1471.05 1418.5,1411.5 Z"/></g>
<g><path style="opacity:1" fill="#1a2d56" d="M 1554.5,983.5 C 1569.47,998.634 1584.3,1013.97 1599,1029.5C 1599.5,1292.83 1599.67,1556.17 1599.5,1819.5C 1448.5,1819.33 1297.5,1819.5 1146.5,1820C 1137.83,1822.25 1130.99,1827.08 1126,1834.5C 1119.89,1844.33 1116.06,1855 1114.5,1866.5C 1078.17,1866.5 1041.83,1866.5 1005.5,1866.5C 1004.58,1846.09 994.584,1832.25 975.5,1825C 969.368,1822.57 963.034,1820.91 956.5,1820C 808.834,1819.5 661.167,1819.33 513.5,1819.5C 513.333,1559.17 513.5,1298.83 514,1038.5C 530,1022.5 546,1006.5 562,990.5C 562.5,1249.17 562.667,1507.83 562.5,1766.5C 696.852,1766.02 831.185,1766.52 965.5,1768C 1002.87,1773.51 1033.53,1790.68 1057.5,1819.5C 1081.81,1790.83 1112.48,1772.67 1149.5,1765C 1284.5,1764.5 1419.5,1764.33 1554.5,1764.5C 1554.5,1504.17 1554.5,1243.83 1554.5,983.5 Z M 644.5,1190.5 C 661.02,1249.56 677.853,1308.56 695,1367.5C 704.572,1369.46 714.405,1370.13 724.5,1369.5C 740.42,1310.07 756.753,1250.74 773.5,1191.5C 761.5,1190.17 749.5,1190.17 737.5,1191.5C 726.902,1229.89 717.569,1268.56 709.5,1307.5C 700.327,1268.81 690.827,1230.14 681,1191.5C 668.914,1190.51 656.747,1190.18 644.5,1190.5 Z M 774.5,1190.5 C 774.5,1250.17 774.5,1309.83 774.5,1369.5C 798.167,1369.5 821.833,1369.5 845.5,1369.5C 845.5,1358.83 845.5,1348.17 845.5,1337.5C 833.5,1337.5 821.5,1337.5 809.5,1337.5C 809.5,1323.5 809.5,1309.5 809.5,1295.5C 820.167,1295.5 830.833,1295.5 841.5,1295.5C 841.5,1284.83 841.5,1274.17 841.5,1263.5C 830.833,1263.5 820.167,1263.5 809.5,1263.5C 809.5,1249.83 809.5,1236.17 809.5,1222.5C 821.5,1222.5 833.5,1222.5 845.5,1222.5C 845.5,1211.83 845.5,1201.17 845.5,1190.5C 821.833,1190.5 798.167,1190.5 774.5,1190.5 Z M 853.5,1190.5 C 853.5,1250.17 853.5,1309.83 853.5,1369.5C 865.167,1369.5 876.833,1369.5 888.5,1369.5C 888.167,1341.83 888.5,1314.16 889.5,1286.5C 900.431,1313.96 910.764,1341.63 920.5,1369.5C 932.838,1369.67 945.171,1369.5 957.5,1369C 946.975,1342.43 936.642,1315.76 926.5,1289C 942.924,1277.83 951.591,1262.17 952.5,1242C 951.155,1210.65 934.822,1193.65 903.5,1191C 886.837,1190.5 870.17,1190.33 853.5,1190.5 Z M 965.5,1190.5 C 965.5,1250.17 965.5,1309.83 965.5,1369.5C 977.167,1369.5 988.833,1369.5 1000.5,1369.5C 1000.5,1309.83 1000.5,1250.17 1000.5,1190.5C 988.833,1190.5 977.167,1190.5 965.5,1190.5 Z M 1117.5,1191.5 C 1117.5,1251.17 1117.5,1310.83 1117.5,1370.5C 1141.5,1370.5 1165.5,1370.5 1189.5,1370.5C 1189.5,1359.83 1189.5,1349.17 1189.5,1338.5C 1177.17,1338.5 1164.83,1338.5 1152.5,1338.5C 1152.5,1289.5 1152.5,1240.5 1152.5,1191.5C 1140.83,1191.5 1129.17,1191.5 1117.5,1191.5 Z M 1217.5,1191.5 C 1217.02,1241.21 1217.52,1290.87 1219,1340.5C 1223.69,1357.85 1234.86,1368.35 1252.5,1372C 1264.5,1374 1276.5,1374 1288.5,1372C 1305.38,1368.79 1316.21,1358.96 1321,1342.5C 1322.47,1292.2 1322.97,1241.87 1322.5,1191.5C 1311.17,1191.5 1299.83,1191.5 1288.5,1191.5C 1288.67,1235.83 1288.5,1280.17 1288,1324.5C 1287.89,1330.55 1285.73,1335.71 1281.5,1340C 1262.74,1346.88 1252.91,1340.38 1252,1320.5C 1251.5,1277.5 1251.33,1234.5 1251.5,1191.5C 1240.17,1191.5 1228.83,1191.5 1217.5,1191.5 Z M 1353.5,1191.5 C 1365.93,1220.28 1378.26,1249.12 1390.5,1278C 1378.59,1308.66 1366.26,1339.16 1353.5,1369.5C 1366.48,1370.5 1379.48,1370.83 1392.5,1370.5C 1399.29,1352.46 1405.29,1334.12 1410.5,1315.5C 1416.14,1333.75 1422.81,1351.75 1430.5,1369.5C 1443.83,1370.83 1457.17,1370.83 1470.5,1369.5C 1456.77,1339.31 1443.44,1308.98 1430.5,1278.5C 1442.64,1249.41 1454.98,1220.41 1467.5,1191.5C 1455.17,1191.5 1442.83,1191.5 1430.5,1191.5C 1427.3,1200.25 1423.8,1208.91 1420,1217.5C 1416.86,1226.42 1414.03,1235.42 1411.5,1244.5C 1406.11,1226.51 1399.45,1209.01 1391.5,1192C 1378.84,1191.5 1366.17,1191.33 1353.5,1191.5 Z M 939.5,1407.5 C 920.55,1412.28 908.717,1424.28 904,1443.5C 899.894,1461.02 902.56,1477.36 912,1492.5C 922.67,1504.17 934.837,1514 948.5,1522C 959.112,1533.4 959.112,1544.74 948.5,1556C 934.284,1561.95 921.117,1560.12 909,1550.5C 908.168,1561.52 908.334,1572.52 909.5,1583.5C 918.469,1589.2 928.303,1592.2 939,1592.5C 962.624,1591.71 978.624,1580.37 987,1558.5C 993.14,1540.15 991.14,1522.82 981,1506.5C 971.453,1495.81 960.62,1486.64 948.5,1479C 937.181,1470.71 933.681,1459.88 938,1446.5C 939.046,1444.91 940.213,1443.41 941.5,1442C 955.375,1435.82 967.875,1437.98 979,1448.5C 979.667,1437.5 979.667,1426.5 979,1415.5C 966.746,1408.55 953.579,1405.88 939.5,1407.5 Z M 670.5,1410.5 C 670.5,1421.17 670.5,1431.83 670.5,1442.5C 679.833,1442.5 689.167,1442.5 698.5,1442.5C 698.5,1491.5 698.5,1540.5 698.5,1589.5C 709.833,1589.5 721.167,1589.5 732.5,1589.5C 732.5,1540.5 732.5,1491.5 732.5,1442.5C 742.167,1442.5 751.833,1442.5 761.5,1442.5C 761.5,1431.83 761.5,1421.17 761.5,1410.5C 731.167,1410.5 700.833,1410.5 670.5,1410.5 Z M 810.5,1410.5 C 796.732,1470.07 782.732,1529.57 768.5,1589C 780.162,1589.5 791.829,1589.67 803.5,1589.5C 804.987,1579.73 806.987,1570.07 809.5,1560.5C 822.062,1559.18 834.562,1559.18 847,1560.5C 848.854,1569.92 851.021,1579.25 853.5,1588.5C 865.482,1589.5 877.482,1589.83 889.5,1589.5C 875.659,1529.8 861.659,1470.13 847.5,1410.5C 835.167,1410.5 822.833,1410.5 810.5,1410.5 Z M 1123.5,1411.5 C 1118.22,1471.14 1113.22,1530.81 1108.5,1590.5C 1120.83,1590.5 1133.17,1590.5 1145.5,1590.5C 1146.72,1547.14 1148.56,1503.81 1151,1460.5C 1157.71,1503.4 1165.71,1546.07 1175,1588.5C 1179.25,1589.8 1183.75,1590.47 1188.5,1590.5C 1193.08,1590.49 1197.58,1590.15 1202,1589.5C 1210.25,1546.67 1217.42,1503.67 1223.5,1460.5C 1227.38,1503.76 1230.38,1547.09 1232.5,1590.5C 1244.5,1590.5 1256.5,1590.5 1268.5,1590.5C 1262.24,1530.82 1255.91,1471.15 1249.5,1411.5C 1233.83,1411.5 1218.17,1411.5 1202.5,1411.5C 1198.32,1446.98 1193.32,1482.31 1187.5,1517.5C 1181.39,1482.51 1175.39,1447.51 1169.5,1412.5C 1154.18,1411.5 1138.85,1411.17 1123.5,1411.5 Z M 1290.5,1411.5 C 1290.5,1471.17 1290.5,1530.83 1290.5,1590.5C 1314.17,1590.5 1337.83,1590.5 1361.5,1590.5C 1361.5,1579.83 1361.5,1569.17 1361.5,1558.5C 1349.5,1558.5 1337.5,1558.5 1325.5,1558.5C 1325.5,1544.5 1325.5,1530.5 1325.5,1516.5C 1336.17,1516.5 1346.83,1516.5 1357.5,1516.5C 1357.5,1505.5 1357.5,1494.5 1357.5,1483.5C 1346.83,1483.5 1336.17,1483.5 1325.5,1483.5C 1325.5,1470.17 1325.5,1456.83 1325.5,1443.5C 1337.5,1443.5 1349.5,1443.5 1361.5,1443.5C 1361.5,1432.83 1361.5,1422.17 1361.5,1411.5C 1337.83,1411.5 1314.17,1411.5 1290.5,1411.5 Z M 1418.5,1411.5 C 1404.74,1471.05 1390.74,1530.55 1376.5,1590C 1388.16,1590.5 1399.83,1590.67 1411.5,1590.5C 1412.88,1580.76 1414.71,1571.09 1417,1561.5C 1429.44,1560.18 1441.94,1560.18 1454.5,1561.5C 1456.65,1571.07 1458.98,1580.57 1461.5,1590C 1473.5,1590.5 1485.5,1590.67 1497.5,1590.5C 1483.5,1530.83 1469.5,1471.17 1455.5,1411.5C 1443.17,1411.5 1430.83,1411.5 1418.5,1411.5 Z"/></g>
<g><path style="opacity:1" fill="#1a2d56" d="M 1957.5,997.5 C 1975.6,999.374 1981.1,1008.71 1974,1025.5C 1964.96,1033.49 1955.96,1033.49 1947,1025.5C 1940.4,1012.12 1943.9,1002.79 1957.5,997.5 Z"/></g>
<g><path style="opacity:1" fill="#1a2d56" d="M 146.5,1019.5 C 165.068,1019.96 171.234,1028.96 165,1046.5C 157.767,1054.2 149.6,1055.37 140.5,1050C 134.014,1043.02 132.847,1035.19 137,1026.5C 139.529,1023.12 142.696,1020.78 146.5,1019.5 Z"/></g>
<g><path style="opacity:1" fill="#1a2d56" d="M 2109.5,1051.5 C 2110.5,1051.5 2111.5,1051.5 2112.5,1051.5C 2115.76,1117.55 2097.59,1176.88 2058,1229.5C 2034.15,1261.52 2005.65,1288.52 1972.5,1310.5C 1934.87,1277.39 1903.37,1239.39 1878,1196.5C 1863.54,1170.91 1854.21,1143.58 1850,1114.5C 1849.5,1105.84 1849.33,1097.17 1849.5,1088.5C 1865.35,1094.43 1879.69,1102.93 1892.5,1114C 1926.91,1145.94 1951.41,1184.44 1966,1229.5C 1969.95,1240.65 1973.29,1251.98 1976,1263.5C 1987.54,1187.24 2022.37,1124.07 2080.5,1074C 2090.07,1066.25 2099.73,1058.75 2109.5,1051.5 Z"/></g>
<g><path style="opacity:1" fill="#1a2d56" d="M -0.5,1098.5 C -0.5,1092.17 -0.5,1085.83 -0.5,1079.5C 0.28997,1078.39 0.78997,1077.06 1,1075.5C 65.2831,1117.13 109.283,1174.47 133,1247.5C 136.435,1260.01 139.101,1272.67 141,1285.5C 150.517,1241.15 168.184,1200.48 194,1163.5C 212.159,1138.84 234.992,1119.84 262.5,1106.5C 265.359,1128.58 263.192,1150.24 256,1171.5C 241.339,1212.84 220.006,1250.18 192,1283.5C 177.567,1300.37 162.233,1316.37 146,1331.5C 103.058,1304.22 67.7243,1269.22 40,1226.5C 15.5101,1187.2 2.01007,1144.54 -0.5,1098.5 Z"/></g>
<g><path style="opacity:1" fill="#1a2d56" d="M 1612.5,1107.5 C 1635.83,1107.5 1659.17,1107.5 1682.5,1107.5C 1682.5,1136.83 1682.5,1166.17 1682.5,1195.5C 1659.17,1195.5 1635.83,1195.5 1612.5,1195.5C 1612.5,1166.17 1612.5,1136.83 1612.5,1107.5 Z"/></g>
<g><path style="opacity:1" fill="#1a2d56" d="M 424.5,1114.5 C 447.833,1114.5 471.167,1114.5 494.5,1114.5C 494.5,1143.83 494.5,1173.17 494.5,1202.5C 471.167,1202.5 447.833,1202.5 424.5,1202.5C 424.5,1173.17 424.5,1143.83 424.5,1114.5 Z"/></g>
<g><path style="opacity:1" fill="#1a2d56" d="M 888.5,1218.5 C 913.069,1217.57 922.569,1229.24 917,1253.5C 911.776,1265.64 902.61,1270.31 889.5,1267.5C 888.501,1251.18 888.167,1234.85 888.5,1218.5 Z"/></g>
<g><path style="opacity:1" fill="#1a2d56" d="M 2115.5,1235.5 C 2115.5,1237.83 2115.5,1240.17 2115.5,1242.5C 2105.89,1306.55 2077.23,1360.39 2029.5,1404C 2001.12,1429.95 1969.29,1450.78 1934,1466.5C 1901.7,1428.6 1877.03,1385.94 1860,1338.5C 1849.13,1308.41 1844.8,1277.41 1847,1245.5C 1847.58,1238.99 1848.92,1232.65 1851,1226.5C 1881.7,1247.88 1904.37,1275.88 1919,1310.5C 1933.8,1346.04 1942.47,1383.04 1945,1421.5C 1965.96,1356.56 2004.46,1304.72 2060.5,1266C 2077.93,1254.28 2096.26,1244.12 2115.5,1235.5 Z"/></g>
<g><path style="opacity:1" fill="#1a2d56" d="M 264.5,1245.5 C 265.117,1245.61 265.617,1245.94 266,1246.5C 272.513,1270.98 273.18,1295.65 268,1320.5C 260.743,1357.94 247.743,1393.27 229,1426.5C 216.976,1447.9 203.476,1468.23 188.5,1487.5C 128.213,1462.04 79.0466,1422.71 41,1369.5C 18.8705,1336.45 5.8705,1300.11 2,1260.5C 63.7859,1286.29 112.786,1327.29 149,1383.5C 160.155,1401.81 169.155,1421.14 176,1441.5C 177.913,1400.18 186.913,1360.52 203,1322.5C 216.737,1291.28 237.237,1265.61 264.5,1245.5 Z"/></g>
<g><path style="opacity:1" fill="#1a2d56" d="M 1950.5,1316.5 C 1967.59,1315.09 1974.76,1322.76 1972,1339.5C 1967.45,1348.25 1960.29,1351.41 1950.5,1349C 1940.5,1344 1937.33,1336.16 1941,1325.5C 1943.41,1321.59 1946.57,1318.59 1950.5,1316.5 Z"/></g>
<g><path style="opacity:1" fill="#1a2d56" d="M 160.5,1336.5 C 174.806,1336.97 180.972,1344.31 179,1358.5C 175.235,1368.47 168.068,1372.3 157.5,1370C 145.813,1364.1 142.98,1355.27 149,1343.5C 152.225,1339.98 156.058,1337.65 160.5,1336.5 Z"/></g>
<g><path style="opacity:1" fill="#1a2d56" d="M 1827.5,1363.5 C 1850.73,1385.29 1866.9,1411.62 1876,1442.5C 1887.67,1484.48 1891.33,1527.15 1887,1570.5C 1920.45,1509.06 1969.28,1464.23 2033.5,1436C 2050.61,1428.46 2068.28,1422.63 2086.5,1418.5C 2073.6,1464.8 2049.6,1504.3 2014.5,1537C 1971.82,1574.35 1922.82,1600.18 1867.5,1614.5C 1838.9,1564.87 1821.4,1511.54 1815,1454.5C 1813.29,1431.27 1814.79,1408.27 1819.5,1385.5C 1821.58,1377.91 1824.25,1370.58 1827.5,1363.5 Z"/></g>
<g><path style="opacity:1" fill="#1a2d56" d="M 291.5,1381.5 C 299.886,1397.36 304.719,1414.36 306,1432.5C 309.197,1480.65 302.197,1527.32 285,1572.5C 277.356,1593.45 268.356,1613.79 258,1633.5C 192.223,1618.63 135.889,1587.3 89,1539.5C 63.5913,1511.36 45.4246,1479.03 34.5,1442.5C 111.218,1459.46 173.051,1499.13 220,1561.5C 226.503,1571.17 232.503,1581.17 238,1591.5C 234.256,1557.15 234.756,1522.82 239.5,1488.5C 245.792,1447.19 263.125,1411.53 291.5,1381.5 Z"/></g>
<g><path style="opacity:1" fill="#1a2d56" d="M 826.5,1455.5 C 828.117,1456.59 828.95,1458.26 829,1460.5C 832.521,1484.29 836.687,1507.96 841.5,1531.5C 832.833,1531.5 824.167,1531.5 815.5,1531.5C 819.383,1506.2 823.05,1480.87 826.5,1455.5 Z"/></g>
<g><path style="opacity:1" fill="#1a2d56" d="M 1434.5,1456.5 C 1435.73,1457.15 1436.39,1458.32 1436.5,1460C 1439.94,1484.2 1444.27,1508.2 1449.5,1532C 1440.84,1532.5 1432.17,1532.67 1423.5,1532.5C 1427.17,1507.17 1430.83,1481.83 1434.5,1456.5 Z"/></g>
<g><path style="opacity:1" fill="#1a2d56" d="M 1780.5,1494.5 C 1782.19,1495.47 1783.69,1496.81 1785,1498.5C 1801.52,1523.73 1811.52,1551.4 1815,1581.5C 1817.92,1613.02 1816.59,1644.35 1811,1675.5C 1808.49,1686.54 1806.15,1697.54 1804,1708.5C 1845.55,1655.03 1899.38,1619.86 1965.5,1603C 1983.74,1598.29 2002.24,1595.12 2021,1593.5C 2022.83,1593.83 2024.67,1594.17 2026.5,1594.5C 1998.8,1649.36 1957.14,1689.86 1901.5,1716C 1861.88,1734.11 1820.38,1744.95 1777,1748.5C 1756.25,1691.22 1748.58,1632.22 1754,1571.5C 1756.87,1543.64 1765.7,1517.98 1780.5,1494.5 Z"/></g>
<g><path style="opacity:1" fill="#1a2d56" d="M 340.5,1511.5 C 341.496,1511.41 342.329,1511.75 343,1512.5C 357.31,1534.42 366.31,1558.42 370,1584.5C 377.397,1645.43 371.564,1705.09 352.5,1763.5C 280.774,1761.76 216.774,1738.93 160.5,1695C 133.889,1672.92 113.222,1646.42 98.5,1615.5C 172.013,1619.38 236.68,1644.88 292.5,1692C 303.732,1702.56 314.232,1713.73 324,1725.5C 312.281,1687.46 307.281,1648.46 309,1608.5C 310.811,1573.24 321.311,1540.9 340.5,1511.5 Z"/></g>
<g><path style="opacity:1" fill="#1a2d56" d="M 426.5,1527.5 C 449.833,1527.5 473.167,1527.5 496.5,1527.5C 496.5,1556.83 496.5,1586.17 496.5,1615.5C 473.167,1615.5 449.833,1615.5 426.5,1615.5C 426.5,1586.17 426.5,1556.83 426.5,1527.5 Z"/></g>
<g><path style="opacity:1" fill="#1a2d56" d="M 1615.5,1535.5 C 1638.83,1535.5 1662.17,1535.5 1685.5,1535.5C 1685.5,1564.83 1685.5,1594.17 1685.5,1623.5C 1662.17,1623.5 1638.83,1623.5 1615.5,1623.5C 1615.5,1594.17 1615.5,1564.83 1615.5,1535.5 Z"/></g>
<g><path style="opacity:1" fill="#1a2d56" d="M 1841.5,1612.5 C 1858.07,1613.98 1863.9,1622.64 1859,1638.5C 1852.35,1646.76 1844.18,1648.6 1834.5,1644C 1827.56,1637.82 1825.72,1630.32 1829,1621.5C 1831.92,1616.64 1836.08,1613.64 1841.5,1612.5 Z"/></g>
<g><path style="opacity:1" fill="#1a2d56" d="M 1712.5,1616.5 C 1716.04,1620.54 1718.87,1625.21 1721,1630.5C 1728.07,1647.86 1732.07,1665.86 1733,1684.5C 1720.62,1672.62 1708.79,1660.29 1697.5,1647.5C 1700.65,1636.2 1705.65,1625.87 1712.5,1616.5 Z"/></g>
<g><path style="opacity:1" fill="#1a2d56" d="M 412.5,1630.5 C 422.976,1639.49 431.476,1650.16 438,1662.5C 455.408,1695.73 465.741,1731.06 469,1768.5C 472.457,1805.22 471.957,1841.89 467.5,1878.5C 413.239,1885.1 360.239,1879.6 308.5,1862C 261.21,1844.7 222.21,1816.2 191.5,1776.5C 271.876,1765.18 345.543,1782.35 412.5,1828C 418.978,1832.98 425.312,1838.14 431.5,1843.5C 431.833,1843.17 432.167,1842.83 432.5,1842.5C 404.939,1791.53 393.439,1737.19 398,1679.5C 400.204,1662.34 405.038,1646.01 412.5,1630.5 Z"/></g>
<g><path style="opacity:1" fill="#1a2d56" d="M 277.5,1631.5 C 294.566,1631.64 301.066,1639.97 297,1656.5C 290.662,1665.39 282.495,1667.56 272.5,1663C 261.959,1653.31 261.959,1643.64 272.5,1634C 274.315,1633.24 275.981,1632.41 277.5,1631.5 Z"/></g>
<g><path style="opacity:1" fill="#1a2d56" d="M 1615.5,1668.5 C 1639.84,1668.33 1664.17,1668.5 1688.5,1669C 1821.02,1806.01 1953.35,1943.18 2085.5,2080.5C 2072.33,2080.83 2059.17,2081.17 2046,2081.5C 2032.08,2081.65 2018.24,2081.15 2004.5,2080C 1875,1972.5 1745.5,1865 1616,1757.5C 1615.5,1727.84 1615.33,1698.17 1615.5,1668.5 Z"/></g>
<g><path style="opacity:1" fill="#1a2d56" d="M 496.5,1673.5 C 497.833,1691.32 498.5,1709.49 498.5,1728C 498.333,1746.17 498.167,1764.33 498,1782.5C 497.751,1783.62 497.251,1784.62 496.5,1785.5C 493.738,1763.82 490.571,1742.15 487,1720.5C 485.044,1711.51 482.544,1702.68 479.5,1694C 484.988,1687.01 490.654,1680.18 496.5,1673.5 Z"/></g>
<g><path style="opacity:1" fill="#1a2d56" d="M 1892.5,1749.5 C 1907.84,1749.33 1923.17,1749.5 1938.5,1750C 1939.62,1750.25 1940.62,1750.75 1941.5,1751.5C 1921.99,1780.84 1897.16,1804.51 1867,1822.5C 1860.71,1817.21 1854.71,1811.55 1849,1805.5C 1836.65,1792.65 1824.48,1779.65 1812.5,1766.5C 1838.57,1757.49 1865.23,1751.82 1892.5,1749.5 Z"/></g>
<g><path style="opacity:1" fill="#1a2d56" d="M 1665.5,1818.5 C 1685.14,1834.32 1704.8,1850.16 1724.5,1866C 1716.16,1867.15 1707.66,1867.65 1699,1867.5C 1689.8,1867.46 1680.63,1867.13 1671.5,1866.5C 1668.84,1850.59 1666.84,1834.59 1665.5,1818.5 Z"/></g>
<g><path style="opacity:1" fill="#1a2d56" d="M 1553.5,1830.5 C 1576.16,1831.05 1598.83,1831.72 1621.5,1832.5C 1610.94,1866.95 1595.11,1898.61 1574,1927.5C 1573.31,1928.33 1573.48,1929 1574.5,1929.5C 1628.22,1896.65 1686.55,1882.49 1749.5,1887C 1764.02,1899.02 1778.69,1910.86 1793.5,1922.5C 1757.19,1949 1716.52,1964.84 1671.5,1970C 1624.83,1975.26 1578.83,1971.76 1533.5,1959.5C 1534.02,1915.52 1540.69,1872.52 1553.5,1830.5 Z"/></g>
<g><path style="opacity:1" fill="#1a2d56" d="M 1493.5,1832.5 C 1502.5,1832.5 1511.5,1832.5 1520.5,1832.5C 1518.95,1866.66 1509.78,1898.66 1493,1928.5C 1476.66,1957.52 1456.49,1983.69 1432.5,2007C 1443.06,2003.71 1453.72,2000.37 1464.5,1997C 1539.75,1978.46 1612.09,1986.29 1681.5,2020.5C 1638.02,2050.43 1589.68,2065.1 1536.5,2064.5C 1484.58,2064.02 1435.25,2052.52 1388.5,2030C 1397.99,1973.55 1418.49,1921.38 1450,1873.5C 1460.05,1859.78 1471.21,1846.95 1483.5,1835C 1486.91,1834 1490.24,1833.17 1493.5,1832.5 Z"/></g>
<g><path style="opacity:1" fill="#1a2d56" d="M 505.5,1836.5 C 528.236,1835.17 551.069,1835.17 574,1836.5C 590.105,1879.65 598.605,1924.15 599.5,1970C 545.319,1986.69 490.319,1990.03 434.5,1980C 387.324,1970.75 346.324,1949.91 311.5,1917.5C 311.709,1916.91 312.043,1916.41 312.5,1916C 384.119,1894.35 454.786,1897.02 524.5,1924C 536.272,1929.05 547.605,1934.89 558.5,1941.5C 559.521,1941 559.688,1940.33 559,1939.5C 535.369,1908.24 517.536,1873.91 505.5,1836.5 Z"/></g>
<g><path style="opacity:1" fill="#1a2d56" d="M 610.5,1835.5 C 618.84,1835.33 627.173,1835.5 635.5,1836C 662.947,1857.75 685.114,1883.92 702,1914.5C 723.137,1953.43 737.971,1994.43 746.5,2037.5C 688.319,2067.3 626.652,2079.47 561.5,2074C 522.343,2069.51 486.343,2056.51 453.5,2035C 491.858,2014.33 532.858,2002.33 576.5,1999C 620.629,1995.51 663.296,2001.51 704.5,2017C 670.072,1986.65 643.572,1950.48 625,1908.5C 615.229,1885.15 610.396,1860.81 610.5,1835.5 Z"/></g>
<g><path style="opacity:1" fill="#1a2d56" d="M 1631.5,1854.5 C 1651.44,1854.72 1657.61,1864.06 1650,1882.5C 1638.44,1891.63 1628.78,1889.96 1621,1877.5C 1618.03,1866.79 1621.53,1859.12 1631.5,1854.5 Z"/></g>
<g><path style="opacity:1" fill="#1a2d56" d="M 490.5,1868.5 C 505.858,1868.02 512.691,1875.36 511,1890.5C 505.584,1901.75 497.084,1904.92 485.5,1900C 474.833,1890.33 474.833,1880.67 485.5,1871C 487.315,1870.24 488.981,1869.41 490.5,1868.5 Z"/></g>
<g><path style="opacity:1" fill="#1a2d56" d="M 309.5,1882.5 C 323.857,1885.84 338.19,1889.34 352.5,1893C 330.265,1896.69 309.265,1903.86 289.5,1914.5C 294.518,1923.03 300.852,1930.53 308.5,1937C 320.608,1947.89 333.608,1957.55 347.5,1966C 348.451,1966.72 348.617,1967.55 348,1968.5C 289.167,2020 230.333,2071.5 171.5,2123C 156.757,2132.88 141.757,2133.55 126.5,2125C 118.529,2115.06 116.363,2103.9 120,2091.5C 121.783,2085.93 124.117,2080.6 127,2075.5C 188.038,2011.3 248.871,1946.96 309.5,1882.5 Z"/></g>
<g><path style="opacity:1" fill="#1a2d56" d="M 1395.5,1882.5 C 1396.83,1882.5 1398.17,1882.5 1399.5,1882.5C 1396.16,1919.04 1383.66,1952.04 1362,1981.5C 1338.69,2012.56 1310.85,2038.72 1278.5,2060C 1364.62,2044.42 1443.95,2061.09 1516.5,2110C 1519.02,2111.76 1521.35,2113.76 1523.5,2116C 1474.75,2137.76 1424.08,2143.76 1371.5,2134C 1320.31,2124.23 1273.98,2103.9 1232.5,2073C 1253.18,2018.92 1283.18,1970.92 1322.5,1929C 1343.64,1908.34 1367.97,1892.84 1395.5,1882.5 Z"/></g>
<g><path style="opacity:1" fill="#1a2d56" d="M 732.5,1890.5 C 740.208,1891.35 747.541,1893.51 754.5,1897C 772.371,1905.43 788.704,1916.09 803.5,1929C 847.349,1970.81 880.682,2019.98 903.5,2076.5C 902.046,2078.46 900.38,2080.29 898.5,2082C 848.369,2118.39 792.369,2139.72 730.5,2146C 689.868,2149.01 650.868,2142.51 613.5,2126.5C 685.897,2071.23 767.23,2050.73 857.5,2065C 815.333,2038.83 781.167,2004.67 755,1962.5C 742.243,1940.14 734.743,1916.14 732.5,1890.5 Z"/></g>
<g><path style="opacity:1" fill="#1a2d56" d="M 821.5,2194.5 C 816.5,2194.5 811.5,2194.5 806.5,2194.5C 804.631,2193.84 802.631,2193.17 800.5,2192.5C 814.129,2175.37 830.129,2160.87 848.5,2149C 889.524,2125.21 933.524,2109.55 980.5,2102C 992.758,2099.77 1005.09,2098.11 1017.5,2097C 969.625,2074.48 929.458,2042.31 897,2000.5C 887.404,1986.99 879.071,1972.65 872,1957.5C 869.993,1952.98 868.493,1948.31 867.5,1943.5C 890.529,1946.12 911.862,1953.62 931.5,1966C 964.169,1988 992.336,2014.83 1016,2046.5C 1025.39,2058.89 1034.39,2071.56 1043,2084.5C 1043.5,2071.5 1043.67,2058.5 1043.5,2045.5C 1057.5,2045.5 1071.5,2045.5 1085.5,2045.5C 1085.33,2060.84 1085.5,2076.17 1086,2091.5C 1109.71,2052.3 1138.55,2017.13 1172.5,1986C 1192.86,1967.67 1216.2,1954.34 1242.5,1946C 1249.72,1944.07 1257.05,1942.91 1264.5,1942.5C 1259.57,1958.04 1252.73,1972.7 1244,1986.5C 1211.82,2035.01 1169.32,2071.51 1116.5,2096C 1165.06,2100.81 1211.72,2112.81 1256.5,2132C 1287.03,2145.25 1312.7,2164.75 1333.5,2190.5C 1237.21,2194.91 1154.71,2163.58 1086,2096.5C 1085.5,2119.83 1085.33,2143.16 1085.5,2166.5C 1071.5,2166.5 1057.5,2166.5 1043.5,2166.5C 1043.67,2144.5 1043.5,2122.5 1043,2100.5C 991.3,2150.76 929.466,2180.93 857.5,2191C 845.377,2192.5 833.377,2193.67 821.5,2194.5 Z"/></g>
<g><path style="opacity:1" fill="#1a2d56" d="M 1355.5,2010.5 C 1368.07,2009.4 1375.4,2015.07 1377.5,2027.5C 1375.62,2039.55 1368.62,2045.05 1356.5,2044C 1345.47,2040.46 1341.31,2032.96 1344,2021.5C 1346.44,2016.23 1350.27,2012.56 1355.5,2010.5 Z"/></g>
<g><path style="opacity:1" fill="#1a2d56" d="M 772.5,2016.5 C 787.323,2016.49 793.823,2023.82 792,2038.5C 788.235,2048.47 781.068,2052.3 770.5,2050C 759.347,2044.59 756.18,2036.09 761,2024.5C 764.15,2020.69 767.983,2018.02 772.5,2016.5 Z"/></g>
</svg>
