<?xml version="1.0" standalone="no"?>
<!DOCTYPE svg PUBLIC "-//W3C//DTD SVG 20010904//EN"
 "http://www.w3.org/TR/2001/REC-SVG-20010904/DTD/svg10.dtd">
<svg version="1.0" xmlns="http://www.w3.org/2000/svg"
 width="50%" height="50%" viewBox="0 0 2116.000000 2195.000000"
 preserveAspectRatio="xMidYMid meet">

<g transform="translate(0.000000,2195.000000) scale(0.100000,-0.100000)"
fill="white" stroke="none">
<path d="M16757 21943 c-29 -51 -79 -270 -99 -433 -17 -142 -17 -533 0 -630
64 -354 189 -612 389 -801 126 -118 272 -196 460 -246 81 -21 122 -25 233 -26
186 -1 305 26 470 108 275 137 542 148 794 31 103 -47 174 -96 267 -184 176
-166 263 -345 276 -567 6 -115 -9 -278 -33 -348 -18 -52 -67 -100 -122 -118
-28 -9 -36 -8 -53 7 -27 24 -25 79 7 194 24 86 26 107 22 225 -4 108 -10 144
-33 214 -94 278 -341 453 -661 468 -212 10 -374 -45 -512 -172 -178 -165 -255
-360 -256 -652 l-1 -143 -417 417 c-230 229 -419 415 -421 413 -2 -3 6 -168
17 -368 l21 -362 945 -945 945 -945 350 0 350 0 -339 339 -339 339 112 -29
c249 -64 508 -96 639 -79 198 25 405 104 538 204 80 60 199 185 252 266 98
148 153 293 203 530 30 141 33 170 33 330 -1 141 -5 195 -22 277 -73 339 -244
659 -522 971 -196 221 -453 392 -792 526 -250 98 -587 175 -878 201 -424 36
-909 204 -1240 428 -187 127 -414 341 -514 485 -59 84 -62 87 -69 75z"/>
<path d="M9416 20845 c-729 -147 -1361 -613 -1817 -1341 -80 -129 -201 -358
-239 -454 -20 -50 -20 -53 -3 -72 17 -19 32 -19 613 -13 327 4 611 10 630 14
35 8 34 8 -80 63 -176 86 -340 133 -555 158 -49 6 -91 12 -92 14 -2 2 16 8 39
15 82 24 264 103 386 166 474 247 873 638 1148 1126 58 103 154 312 154 337 0
17 -47 14 -184 -13z"/>
<path d="M11340 20862 c0 -18 55 -143 116 -262 228 -450 607 -859 1040 -1121
65 -40 173 -98 239 -130 119 -56 303 -129 326 -129 39 0 -12 -10 -117 -24
-207 -27 -435 -98 -578 -180 l-60 -34 65 -6 c35 -3 317 -8 625 -12 582 -6 604
-5 604 34 0 24 -98 232 -170 359 -161 284 -345 528 -565 749 -233 234 -445
389 -716 523 -228 114 -440 184 -679 226 -96 17 -130 19 -130 7z"/>
<path d="M13130 20604 c0 -44 99 -346 160 -489 269 -631 692 -1119 1255 -1448
55 -32 89 -56 75 -53 -143 31 -398 43 -575 27 -154 -14 -287 -39 -442 -82
l-113 -31 0 -314 0 -314 60 0 c154 0 414 44 616 105 180 54 452 166 698 287
121 60 222 111 224 113 6 5 -45 185 -84 297 -279 807 -803 1435 -1459 1749
-154 74 -415 170 -415 153z"/>
<path d="M7665 20506 c-594 -216 -1063 -627 -1415 -1240 -144 -251 -272 -567
-344 -853 -14 -56 -26 -105 -26 -108 0 -12 281 -141 450 -208 434 -171 778
-252 1197 -281 l62 -4 5 62 c3 33 7 172 9 308 l3 246 -110 26 c-245 58 -419
76 -721 76 -198 0 -383 -10 -455 -25 -14 -3 16 18 65 48 581 344 1008 862
1273 1547 42 109 91 269 116 378 17 75 19 75 -109 28z"/>
<path d="M1320 20356 c-196 -29 -506 -129 -498 -162 4 -15 2483 -2484 2495
-2484 4 0 18 37 31 82 78 280 241 597 406 791 l57 68 -603 611 c-332 336 -647
653 -702 705 -203 193 -437 319 -694 373 -127 27 -362 34 -492 16z"/>
<path d="M605 19969 c-274 -263 -423 -675 -402 -1115 14 -281 92 -600 220
-891 l43 -98 1182 -3 c650 -1 1182 1 1182 5 0 5 -486 494 -1079 1087 l-1079
1079 -67 -64z"/>
<path d="M14883 19894 c11 -212 55 -455 123 -682 143 -473 429 -933 768 -1236
l77 -69 75 74 c42 41 133 135 204 210 l129 135 -44 130 c-233 692 -640 1188
-1232 1501 l-106 56 6 -119z"/>
<path d="M5945 19849 c-450 -258 -790 -627 -1035 -1124 -197 -399 -307 -813
-344 -1297 l-5 -67 53 -15 c238 -69 541 -133 801 -167 228 -31 683 -34 870 -6
240 36 453 97 617 176 87 42 198 111 198 122 0 4 -33 27 -72 52 -158 97 -318
164 -508 212 -308 78 -699 85 -1090 19 -118 -20 -379 -81 -465 -109 -19 -6
-19 -6 -2 8 577 473 944 1139 1062 1930 20 133 31 317 19 317 -6 0 -50 -23
-99 -51z"/>
<path d="M10391 19825 c-83 -26 -150 -116 -151 -204 -1 -177 170 -284 328
-205 135 67 161 245 53 354 -66 66 -139 83 -230 55z"/>
<path d="M11418 19685 c-48 -8 -143 -28 -210 -46 -126 -32 -338 -106 -338
-118 0 -10 226 -136 335 -187 122 -57 301 -117 431 -146 121 -26 401 -32 499
-9 73 16 213 67 238 85 18 14 17 16 -6 63 -87 170 -245 294 -447 348 -89 24
-381 30 -502 10z"/>
<path d="M9152 19649 c-270 -35 -463 -164 -574 -383 -29 -57 -29 -60 -12 -73
38 -28 203 -72 307 -83 189 -19 418 16 634 96 182 67 569 282 547 304 -16 15
-233 79 -353 104 -206 43 -394 55 -549 35z"/>
<path d="M13750 19028 c-61 -32 -83 -66 -87 -135 -6 -94 45 -162 133 -179 118
-22 225 91 194 206 -30 110 -139 159 -240 108z"/>
<path d="M4349 18891 c-451 -376 -751 -903 -879 -1541 -50 -249 -64 -406 -64
-700 0 -219 13 -422 27 -436 8 -8 204 -25 414 -36 251 -12 538 -2 763 28 420
55 811 187 1075 362 98 65 228 179 220 192 -9 14 -184 78 -285 104 -174 45
-233 51 -485 51 -201 -1 -261 -5 -369 -23 -305 -53 -590 -144 -882 -282 l-121
-57 85 106 c381 474 592 1046 632 1719 13 217 -6 592 -30 592 -4 0 -49 -35
-101 -79z"/>
<path d="M7090 18949 c-33 -13 -68 -47 -86 -81 -18 -35 -18 -121 1 -158 41
-78 144 -110 225 -68 63 32 90 77 90 148 0 62 -22 106 -72 143 -31 23 -120 32
-158 16z"/>
<path d="M7843 15863 c3 -2705 4 -2927 20 -3038 97 -668 315 -1157 686 -1539
201 -206 384 -339 646 -467 479 -234 1040 -325 1660 -268 626 58 1174 295
1569 678 406 396 640 893 738 1572 l22 154 3 2913 3 2912 -2675 0 -2675 0 3
-2917z m3787 1542 l0 -575 415 0 415 0 0 -405 0 -405 -405 0 -405 0 0 -190 0
-190 405 0 405 0 0 -445 0 -445 -405 0 -405 0 0 -1345 0 -1345 -338 0 -337 0
-480 480 -480 480 -437 -437 -438 -438 -312 313 -313 312 720 720 720 720 370
-370 c204 -204 373 -370 378 -370 4 0 7 837 7 1860 l0 1860 -790 0 -790 0 0
395 0 395 1250 0 1250 0 0 -575z"/>
<path d="M16155 17831 c-434 -473 -790 -866 -790 -873 0 -8 382 -391 849 -851
l848 -837 407 400 c223 219 597 588 831 819 l425 419 -890 891 -890 891 -790
-859z"/>
<path d="M14720 17879 c-196 -25 -403 -85 -565 -164 -114 -55 -265 -149 -265
-165 0 -17 128 -100 221 -145 109 -51 262 -96 415 -122 89 -15 165 -18 418
-18 l309 0 253 260 c140 143 254 263 254 266 0 13 -310 70 -482 89 -112 12
-463 11 -558 -1z"/>
<path d="M2949 17673 c-255 -307 -434 -675 -523 -1075 -98 -437 -94 -960 10
-1428 25 -112 71 -281 79 -288 6 -7 349 27 495 49 736 107 1341 366 1698 726
76 78 156 183 145 194 -18 17 -237 51 -368 56 -457 19 -969 -146 -1475 -475
-63 -41 -141 -95 -173 -119 l-59 -46 32 54 c191 328 313 696 366 1104 23 180
24 550 0 745 -29 244 -110 600 -136 600 -6 0 -46 -44 -91 -97z"/>
<path d="M560 17667 c0 -48 366 -428 725 -751 291 -263 806 -706 819 -706 3 0
6 49 6 109 0 357 176 838 461 1263 33 48 59 90 59 93 0 3 -466 5 -1035 5 -838
0 -1035 -2 -1035 -13z"/>
<path d="M4396 17270 c-43 -13 -95 -69 -107 -114 -32 -117 60 -225 181 -214
200 19 198 312 -1 333 -24 2 -57 0 -73 -5z"/>
<path d="M14780 16652 c-95 -115 -175 -213 -177 -218 -2 -5 432 -444 965 -977
l967 -967 200 200 200 200 -985 985 c-542 542 -987 985 -990 985 -3 0 -84 -94
-180 -208z"/>
<path d="M19112 16484 c-90 -180 -189 -486 -236 -732 -45 -237 -51 -304 -51
-612 0 -315 7 -388 61 -630 21 -95 106 -367 139 -445 5 -11 -38 25 -96 80
-442 423 -913 683 -1399 772 -98 18 -441 26 -456 11 -21 -21 105 -219 219
-345 374 -412 964 -726 1727 -917 100 -26 190 -46 201 -46 24 0 62 74 135 262
99 253 181 580 216 858 20 164 17 585 -6 745 -22 161 -75 375 -128 520 -49
135 -160 361 -232 474 l-54 84 -40 -79z"/>
<path d="M5834 16439 c-106 -112 -367 -239 -632 -305 -61 -16 -111 -32 -110
-36 5 -13 770 -718 779 -718 5 0 9 245 9 545 0 300 -4 545 -8 545 -5 0 -21
-14 -38 -31z"/>
<path d="M18355 16175 c-160 -153 -296 -283 -303 -290 -12 -10 -4 -34 46 -136
33 -68 83 -161 110 -206 49 -82 54 -97 23 -69 -51 45 -342 226 -363 226 -14 0
-476 -443 -474 -454 10 -47 819 -176 1102 -176 l42 0 30 123 c79 314 106 569
99 932 -3 149 -9 283 -14 298 -8 28 -12 25 -298 -248z"/>
<path d="M6090 15702 l0 -568 722 -709 c396 -391 725 -711 730 -713 4 -2 8
248 8 555 l0 558 -723 723 c-397 397 -725 722 -730 722 -4 0 -7 -256 -7 -568z"/>
<path d="M1729 16139 c-117 -234 -207 -547 -241 -844 -18 -161 -15 -520 6
-690 42 -333 126 -663 246 -965 34 -84 94 -216 105 -228 7 -8 294 74 485 138
417 138 765 311 1050 521 182 134 386 329 364 348 -5 4 -82 76 -170 159 l-161
152 -79 -24 c-393 -118 -786 -363 -1153 -721 -79 -77 -141 -131 -137 -120 113
292 173 594 183 925 11 373 -40 723 -160 1090 -45 139 -37 129 -195 258 l-102
82 -41 -81z"/>
<path d="M13997 15442 l-558 -607 3 -1020 2 -1020 -27 -139 c-15 -77 -38 -171
-51 -208 l-22 -68 370 0 371 0 1035 1035 1034 1034 -209 213 c-116 117 -471
477 -789 801 -319 323 -584 587 -590 586 -6 0 -262 -274 -569 -607z"/>
<path d="M4967 15648 c-148 -179 -202 -234 -322 -324 -294 -221 -623 -373
-941 -434 -189 -36 -183 -18 -44 -149 l121 -113 1244 7 c685 4 1245 11 1245
14 0 8 -1153 1161 -1162 1161 -3 0 -67 -73 -141 -162z"/>
<path d="M20013 14848 c-219 -331 -379 -714 -462 -1100 -42 -194 -52 -293 -58
-529 -6 -252 4 -395 38 -578 11 -57 18 -105 16 -107 -2 -2 -27 30 -56 71 -145
208 -427 512 -611 659 -201 161 -454 306 -651 374 -105 37 -289 78 -386 88
-86 8 -85 10 -47 -98 157 -436 603 -894 1214 -1245 228 -131 665 -335 679
-316 332 471 530 953 614 1493 16 108 21 182 21 375 1 276 -13 388 -74 630
-39 153 -127 396 -146 402 -5 2 -47 -52 -91 -119z"/>
<path d="M18509 14950 c-99 -29 -147 -142 -103 -237 54 -112 228 -125 292 -21
85 138 -37 304 -189 258z"/>
<path d="M2408 14750 c-94 -50 -115 -179 -41 -261 110 -122 307 -33 291 131
-12 119 -142 187 -250 130z"/>
<path d="M912 14674 c-96 -253 -145 -481 -162 -753 -34 -572 129 -1183 467
-1750 84 -142 209 -321 224 -321 17 0 231 100 374 174 758 396 1282 904 1464
1419 43 123 44 120 -31 112 -326 -36 -672 -192 -992 -449 -211 -169 -467 -452
-638 -705 -39 -58 -68 -97 -65 -86 16 51 38 226 49 382 40 578 -119 1200 -446
1751 -64 108 -162 251 -196 286 -17 18 -19 16 -48 -60z"/>
<path d="M4005 14421 c28 -27 349 -322 714 -655 l664 -606 1083 0 1084 0 0
118 0 117 -538 538 -537 537 -1260 0 -1260 0 50 -49z"/>
<path d="M20679 13162 c-203 -207 -370 -435 -518 -707 -238 -436 -361 -911
-361 -1394 l0 -133 -69 138 c-307 622 -740 1078 -1211 1277 -102 43 -258 92
-267 84 -3 -3 2 -50 11 -103 46 -276 214 -612 456 -914 46 -58 156 -177 245
-266 225 -226 412 -378 720 -587 l160 -108 105 108 c466 483 781 1101 876
1718 23 148 26 531 6 670 -17 117 -52 288 -61 297 -4 4 -45 -32 -92 -80z"/>
<path d="M311 12973 c-40 -157 -62 -446 -50 -665 33 -615 291 -1217 758 -1773
92 -109 275 -295 291 -295 26 0 346 234 535 391 136 114 393 371 497 499 219
270 360 514 447 776 38 114 81 327 68 340 -7 8 -148 -39 -251 -83 -312 -133
-628 -409 -892 -779 -112 -157 -290 -480 -352 -638 l-19 -49 -6 194 c-3 107
-13 241 -22 299 -77 500 -275 959 -594 1384 -112 149 -273 331 -349 394 l-51
43 -10 -38z"/>
<path d="M5570 12947 c14 -13 159 -142 322 -285 l297 -262 727 0 c688 0 726 1
719 18 -24 54 -37 157 -42 338 l-6 201 -525 6 c-289 4 -748 7 -1021 7 l-496 0
25 -23z"/>
<path d="M5840 8330 l0 -3800 1928 0 c1856 0 1930 -1 2012 -19 180 -41 417
-146 599 -266 47 -30 86 -55 88 -55 2 0 3 1368 3 3039 l0 3039 -112 7 c-529
32 -930 133 -1330 336 -398 202 -740 509 -993 889 -90 136 -222 396 -269 530
l-34 95 -946 3 -946 2 0 -3800z m1092 1235 c65 -258 127 -519 138 -579 29
-158 31 -158 60 19 16 101 131 578 241 998 l10 37 180 0 c141 0 180 -3 177
-12 -3 -7 -115 -410 -249 -895 l-244 -883 -142 0 -142 0 -20 68 c-112 381
-491 1703 -491 1711 0 8 52 11 182 9 l182 -3 118 -470z m1528 315 l0 -160
-180 0 -180 0 0 -205 0 -205 160 0 160 0 0 -160 0 -160 -160 0 -160 0 0 -210
0 -210 180 0 180 0 0 -160 0 -160 -355 0 -355 0 0 895 0 895 355 0 355 0 0
-160z m712 132 c101 -27 151 -54 213 -113 96 -90 136 -198 136 -364 0 -61 -6
-123 -16 -159 -31 -117 -104 -221 -197 -284 -21 -13 -38 -27 -38 -30 0 -6 300
-794 307 -804 2 -5 -78 -8 -179 -8 l-183 0 -155 415 c-85 228 -158 415 -162
415 -5 0 -8 -187 -8 -415 l0 -415 -175 0 -175 0 0 896 0 896 278 -4 c242 -4
287 -7 354 -26z m838 -867 l0 -895 -175 0 -175 0 0 895 0 895 175 0 175 0 0
-895z m-300 -1316 l85 -34 3 -168 2 -167 -41 29 c-97 71 -236 92 -313 48 -53
-30 -76 -76 -76 -155 0 -113 36 -163 217 -298 62 -47 141 -113 174 -147 161
-165 192 -411 82 -645 -58 -124 -176 -220 -313 -253 -124 -30 -284 -10 -392
48 l-48 26 0 164 0 163 38 -25 c97 -64 252 -86 331 -45 107 54 142 184 77 294
-20 35 -57 67 -159 140 -270 191 -347 312 -347 546 0 193 66 341 199 440 82
61 154 81 286 77 98 -3 120 -7 195 -38z m-2090 -149 l0 -160 -145 0 -145 0 0
-735 0 -735 -170 0 -170 0 0 735 0 735 -140 0 -140 0 0 160 0 160 455 0 455 0
0 -160z m1068 -722 c117 -486 212 -889 212 -895 0 -10 -43 -13 -180 -13 l-180
0 -7 28 c-3 15 -18 81 -33 147 l-26 120 -186 3 c-143 2 -187 0 -190 -10 -3 -7
-18 -75 -34 -150 l-28 -138 -173 0 c-134 0 -171 3 -168 13 3 6 95 401 205 877
110 476 203 873 206 883 5 15 23 17 188 17 l182 0 212 -882z"/>
<path d="M8890 9517 l0 -247 27 -6 c36 -9 137 11 177 35 18 11 46 44 62 73 26
48 29 62 29 148 0 85 -3 100 -27 140 -37 64 -89 91 -189 97 l-79 6 0 -246z"/>
<path d="M8270 7381 c0 -17 -49 -343 -80 -534 -16 -103 -30 -194 -30 -202 0
-12 22 -15 131 -15 131 0 131 0 126 23 -27 111 -127 685 -127 727 0 6 -4 10
-10 10 -5 0 -10 -4 -10 -9z"/>
<path d="M13262 12068 c-32 -90 -147 -316 -222 -436 -394 -630 -964 -1057
-1638 -1226 -179 -45 -377 -74 -554 -83 l-138 -6 0 -3064 c0 -1684 3 -3063 6
-3063 4 0 23 15 43 33 105 95 293 203 439 251 176 59 60 56 2188 56 l1954 0 0
3800 0 3800 -1028 0 -1027 0 -23 -62z m-1732 -2773 l0 -735 185 0 185 0 0
-160 0 -160 -360 0 -360 0 0 895 0 895 175 0 175 0 0 -735z m990 103 c0 -642
5 -746 38 -801 33 -56 65 -72 151 -72 91 0 120 14 153 78 l23 42 3 693 3 692
170 0 170 0 -3 -747 -3 -748 -23 -58 c-48 -118 -139 -200 -267 -240 -60 -19
-93 -22 -225 -22 -132 0 -165 3 -225 22 -131 41 -231 134 -277 258 -23 60 -23
61 -26 798 l-3 737 171 0 170 0 0 -632z m1477 447 c40 -99 82 -217 94 -262 12
-46 25 -83 29 -83 4 0 12 25 19 56 19 83 54 182 118 336 l58 138 183 0 c100 0
182 -4 182 -8 0 -4 -83 -196 -185 -426 -102 -231 -185 -426 -185 -436 0 -9 90
-218 200 -464 110 -247 200 -450 200 -452 0 -2 -89 -4 -198 -4 l-199 0 -66
168 c-36 92 -79 214 -95 272 -16 57 -33 105 -38 107 -5 2 -21 -43 -37 -100
-15 -56 -55 -180 -90 -274 l-62 -173 -194 0 c-163 0 -192 2 -188 14 3 8 87
212 186 454 100 242 181 446 181 453 0 7 -81 198 -179 424 -99 225 -183 418
-187 428 -6 16 6 17 187 15 l194 -3 72 -180z m-2294 -2032 c3 -10 42 -247 88
-528 45 -280 84 -512 86 -514 1 -2 5 -2 8 1 5 5 145 1015 145 1046 0 9 54 12
235 12 l234 0 6 -32 c3 -18 43 -402 90 -853 47 -451 88 -839 91 -862 l6 -43
-179 0 -179 0 -37 583 c-44 669 -48 717 -56 717 -4 0 -22 -111 -40 -247 -18
-137 -65 -428 -104 -648 l-72 -400 -132 -3 c-119 -2 -132 -1 -137 15 -21 71
-174 862 -202 1048 -19 126 -36 231 -38 233 -7 6 -56 -1092 -56 -1245 l0 -53
-185 0 -185 0 0 33 c0 17 34 417 75 887 41 470 75 858 75 863 0 4 103 7 229 7
210 0 230 -1 234 -17z m1917 -143 l0 -160 -180 0 -180 0 0 -200 0 -200 160 0
160 0 0 -165 0 -165 -160 0 -160 0 0 -210 0 -210 180 0 180 0 0 -160 0 -160
-355 0 -355 0 0 895 0 895 355 0 355 0 0 -160z m1148 -728 c117 -488 212 -890
212 -895 0 -4 -82 -6 -182 -5 l-182 3 -28 125 c-15 69 -30 135 -33 148 l-5 22
-187 -2 -187 -3 -31 -147 -30 -148 -172 0 c-134 0 -171 3 -168 13 2 6 95 404
205 882 111 479 203 876 205 883 3 9 50 12 187 12 l183 0 213 -888z"/>
<path d="M14350 7377 c0 -12 -45 -317 -75 -510 -21 -131 -36 -240 -33 -243 3
-2 61 -3 130 -2 l125 3 -47 250 c-26 138 -56 307 -66 378 -10 70 -22 127 -26
127 -4 0 -8 -1 -8 -3z"/>
<path d="M15550 8208 l0 -3908 -2014 0 c-1755 0 -2024 -2 -2086 -15 -285 -60
-583 -231 -795 -457 l-75 -79 -87 91 c-200 210 -446 345 -752 413 -96 21 -101
21 -2103 24 l-2008 3 0 3883 0 3882 -245 -245 -245 -245 0 -3902 0 -3903 2233
-2 c2504 -3 2265 4 2433 -78 143 -70 221 -171 245 -319 l12 -71 541 0 541 0
23 87 c43 168 130 301 232 354 l45 24 2278 3 2277 2 0 3946 0 3947 -147 155
c-82 85 -183 191 -225 236 l-77 81 -1 -3907z"/>
<path d="M19559 11960 c-46 -13 -78 -41 -99 -84 -54 -113 12 -234 135 -244
156 -13 243 163 138 279 -47 51 -109 69 -174 49z"/>
<path d="M1445 11736 c-37 -16 -83 -68 -91 -102 -11 -44 2 -120 26 -154 26
-36 90 -69 135 -70 45 0 116 40 142 79 17 25 23 48 23 91 0 62 -22 106 -72
143 -34 26 -121 33 -163 13z"/>
<path d="M20988 11343 c-577 -434 -991 -1037 -1151 -1678 -19 -77 -43 -189
-53 -249 l-17 -109 -24 89 c-178 675 -550 1253 -991 1538 -82 54 -220 126
-239 126 -18 0 -17 -209 2 -325 69 -430 315 -912 694 -1359 125 -148 292 -325
410 -434 l111 -104 98 70 c329 236 632 551 858 893 214 323 349 659 416 1034
26 146 38 595 16 595 -7 0 -66 -39 -130 -87z"/>
<path d="M4 11142 c-10 -65 11 -373 36 -512 76 -439 277 -869 586 -1255 110
-137 365 -394 505 -508 124 -101 316 -237 334 -237 16 0 266 258 392 404 424
493 687 990 768 1451 18 100 27 376 13 390 -9 9 -137 -60 -236 -127 -436 -294
-777 -841 -955 -1533 l-34 -129 -6 50 c-10 88 -57 285 -99 413 -142 439 -383
830 -729 1182 -154 157 -358 325 -511 423 l-57 36 -7 -48z"/>
<path d="M16130 10430 l0 -440 350 0 350 0 0 440 0 440 -350 0 -350 0 0 -440z"/>
<path d="M4250 10360 l0 -440 350 0 350 0 0 440 0 440 -350 0 -350 0 0 -440z"/>
<path d="M18506 9664 c-18 -48 -36 -216 -36 -344 1 -563 245 -1188 727 -1862
140 -196 128 -187 205 -154 190 82 503 278 718 450 147 118 363 332 472 466
311 386 513 855 564 1308 l7 62 -39 -16 c-138 -58 -374 -193 -524 -300 -533
-380 -908 -864 -1105 -1427 l-42 -119 -12 127 c-74 761 -378 1411 -818 1748
-99 75 -109 81 -117 61z"/>
<path d="M2588 9442 c-88 -66 -232 -212 -307 -310 -289 -383 -451 -867 -509
-1522 l-7 -84 -38 104 c-21 58 -71 173 -112 255 -243 494 -652 930 -1164 1239
-102 62 -303 165 -383 197 l-51 20 7 -63 c10 -93 53 -278 92 -401 90 -279 214
-514 401 -766 109 -146 406 -444 563 -565 219 -168 474 -324 700 -425 92 -42
116 -49 126 -39 28 31 191 271 271 402 382 621 573 1245 533 1738 -10 121 -35
254 -50 263 -4 3 -37 -16 -72 -43z"/>
<path d="M19480 8758 c-58 -40 -75 -72 -75 -143 0 -71 17 -103 76 -143 29 -20
44 -23 96 -20 42 3 72 11 90 24 35 25 73 98 73 139 0 45 -40 116 -79 142 -47
32 -135 32 -181 1z"/>
<path d="M1575 8565 c-185 -67 -124 -339 72 -323 89 8 143 62 151 151 10 127
-105 216 -223 172z"/>
<path d="M18261 8267 c-34 -78 -68 -198 -87 -302 -29 -158 -27 -570 4 -765 63
-388 199 -799 413 -1238 64 -131 83 -162 97 -159 184 51 267 77 371 117 772
292 1359 796 1660 1425 73 152 162 398 148 411 -10 10 -247 -61 -391 -117
-680 -267 -1229 -731 -1551 -1311 -27 -48 -50 -86 -52 -84 -2 2 1 54 7 117 33
380 -15 847 -121 1173 -94 288 -255 562 -428 730 l-50 49 -20 -46z"/>
<path d="M2851 8054 c-231 -247 -393 -622 -463 -1069 -35 -225 -36 -778 -1
-935 3 -14 -18 16 -47 65 -125 214 -252 378 -439 566 -145 144 -230 217 -381
324 -317 224 -740 417 -1098 500 -35 8 -65 15 -68 15 -22 0 76 -254 165 -426
233 -449 585 -805 1085 -1099 258 -151 645 -306 920 -368 l68 -16 58 123 c363
763 499 1483 390 2050 -21 108 -64 246 -97 310 l-19 38 -73 -78z"/>
<path d="M17780 6951 c-213 -334 -299 -875 -234 -1481 28 -263 109 -650 192
-914 l28 -90 59 3 c195 7 554 81 811 166 642 212 1151 586 1476 1085 77 118
163 279 154 288 -12 11 -254 -19 -417 -52 -714 -146 -1333 -507 -1741 -1015
-34 -42 -64 -79 -68 -84 -4 -4 8 50 27 120 77 300 108 574 100 901 -8 369 -70
636 -207 898 -51 100 -130 224 -141 224 -4 0 -21 -22 -39 -49z"/>
<path d="M3372 6767 c-133 -211 -223 -470 -264 -757 -19 -139 -16 -541 5 -700
23 -164 70 -395 107 -517 16 -54 27 -99 26 -100 -1 -2 -35 34 -74 80 -411 479
-1010 818 -1692 956 -180 36 -490 68 -490 50 0 -16 89 -169 161 -274 395 -582
1045 -983 1854 -1144 159 -32 385 -61 472 -61 l52 0 20 68 c66 219 132 544
167 817 23 176 26 658 6 805 -33 234 -94 459 -167 617 -41 88 -122 223 -135
223 -4 0 -26 -28 -48 -63z"/>
<path d="M4270 6230 l0 -440 350 0 350 0 0 440 0 440 -350 0 -350 0 0 -440z"/>
<path d="M16160 6150 l0 -440 350 0 350 0 0 440 0 440 -350 0 -350 0 0 -440z"/>
<path d="M18385 5805 c-159 -56 -130 -303 38 -322 194 -22 270 238 93 318 -49
22 -77 23 -131 4z"/>
<path d="M17103 5738 c-41 -58 -87 -152 -107 -217 l-16 -54 79 -86 c44 -47
125 -131 181 -186 l101 -100 -6 60 c-13 109 -45 264 -76 358 -31 95 -107 267
-119 267 -4 0 -20 -19 -37 -42z"/>
<path d="M4111 5603 c-10 -21 -33 -79 -50 -130 -99 -289 -118 -637 -55 -1008
46 -276 159 -615 289 -876 26 -50 40 -87 33 -83 -7 5 -51 39 -98 78 -441 361
-1017 577 -1670 627 -204 15 -613 0 -637 -25 -14 -14 210 -261 335 -369 443
-384 975 -601 1637 -668 154 -15 539 -15 675 1 58 6 106 13 107 14 7 7 24 212
34 412 18 352 -5 705 -66 1009 -79 395 -227 732 -425 971 -75 90 -85 94 -109
47z"/>
<path d="M2755 5616 c-112 -50 -135 -198 -45 -280 82 -74 209 -52 262 44 26
48 21 134 -12 179 -42 61 -138 87 -205 57z"/>
<path d="M16160 4818 l0 -443 1957 -1622 1956 -1623 394 0 c255 0 393 3 391
10 -1 5 -896 934 -1988 2064 l-1985 2055 -362 0 -363 1 0 -442z"/>
<path d="M4887 5110 l-89 -100 21 -62 c50 -155 89 -363 116 -623 22 -214 25
-235 34 -235 5 0 11 10 15 23 9 32 7 1097 -1 1097 -5 -1 -48 -46 -96 -100z"/>
<path d="M18895 4443 c-104 -9 -341 -46 -440 -68 -140 -31 -325 -85 -325 -95
0 -12 533 -560 545 -560 18 0 182 116 292 207 54 45 137 122 184 170 135 141
279 326 265 340 -8 8 -448 13 -521 6z"/>
<path d="M16665 3698 c12 -115 45 -370 51 -393 3 -13 15 -26 27 -29 33 -9 495
-7 501 2 3 6 -493 419 -566 470 -19 13 -19 12 -13 -50z"/>
<path d="M15520 3570 c-59 -200 -103 -405 -134 -625 -23 -160 -46 -416 -46
-511 l0 -82 128 -31 c155 -37 257 -55 427 -78 184 -24 641 -24 815 0 328 46
611 130 868 257 145 72 363 204 361 219 0 3 -99 85 -220 181 l-219 175 -88 6
c-122 9 -420 -7 -581 -32 -358 -54 -727 -185 -1019 -361 l-92 -56 54 76 c173
248 320 537 411 808 20 58 34 108 33 109 -2 2 -155 5 -341 7 l-338 3 -19 -65z"/>
<path d="M14896 3610 c-47 -6 -55 -12 -146 -106 -376 -394 -650 -949 -831
-1683 -23 -93 -36 -168 -31 -173 18 -18 270 -121 414 -169 393 -131 765 -188
1157 -176 334 10 596 63 891 179 156 61 470 234 470 258 0 17 -241 117 -430
178 -362 117 -651 158 -1054 149 -209 -4 -276 -9 -397 -30 -209 -37 -373 -82
-552 -150 l-68 -27 100 108 c265 285 450 548 587 837 99 208 175 473 189 655
3 41 8 94 10 118 l5 42 -133 -1 c-72 -1 -154 -5 -181 -9z"/>
<path d="M5072 3553 c72 -264 312 -729 517 -1000 l32 -42 -98 57 c-620 356
-1455 458 -2213 268 -148 -37 -190 -51 -190 -64 0 -13 179 -158 283 -230 364
-251 789 -398 1280 -443 162 -15 547 -7 717 15 221 29 576 109 604 136 10 10
-15 293 -40 465 -37 256 -117 585 -191 790 l-30 80 -340 3 -341 2 10 -37z"/>
<path d="M6110 3526 c0 -93 26 -279 54 -387 110 -423 366 -844 746 -1232 75
-76 129 -135 120 -131 -139 57 -418 131 -605 160 -149 24 -653 27 -800 6 -259
-37 -530 -106 -750 -189 -141 -54 -319 -136 -329 -151 -9 -14 54 -54 214 -136
357 -183 679 -262 1105 -273 458 -11 898 74 1352 260 93 38 249 111 261 122 7
6 -78 316 -126 461 -75 229 -146 401 -253 614 -184 367 -401 656 -648 862
l-94 78 -124 0 -123 0 0 -64z"/>
<path d="M16288 3380 c-70 -38 -103 -128 -73 -205 70 -185 339 -125 323 72 -8
91 -63 145 -155 150 -44 2 -67 -2 -95 -17z"/>
<path d="M4885 3246 c-17 -7 -44 -29 -62 -49 -60 -68 -53 -168 16 -230 117
-105 292 -18 279 138 -5 65 -37 111 -92 136 -48 22 -99 24 -141 5z"/>
<path d="M2190 2154 c-965 -1017 -951 -1001 -985 -1131 -40 -154 5 -302 108
-352 99 -48 220 -46 331 6 47 22 249 193 950 806 490 428 891 782 891 787 0 5
-38 34 -85 65 -101 68 -238 177 -337 269 -66 62 -163 178 -163 196 0 10 144
75 255 115 88 32 201 62 318 85 32 7 57 13 55 15 -2 2 -91 25 -198 50 -107 25
-202 47 -210 50 -10 2 -344 -343 -930 -961z"/>
<path d="M13895 3095 c-91 -32 -226 -102 -322 -166 -455 -304 -855 -829 -1166
-1530 -83 -187 -83 -187 -60 -205 47 -36 194 -131 272 -176 786 -455 1633
-575 2366 -333 72 23 159 56 195 72 l65 29 -64 47 c-138 102 -410 251 -608
333 -236 98 -497 171 -754 209 -288 43 -676 35 -942 -21 -38 -8 -73 -14 -79
-14 -6 0 27 27 73 60 561 399 951 910 1079 1410 17 66 49 259 50 303 0 13 -33
7 -105 -18z"/>
<path d="M7330 3024 c0 -41 29 -195 54 -286 93 -342 287 -651 610 -973 172
-171 299 -277 488 -407 78 -53 96 -69 72 -65 -196 36 -270 42 -524 42 -278 0
-355 -7 -578 -51 -425 -86 -894 -291 -1237 -544 -41 -30 -75 -58 -75 -61 0 -4
8 -9 18 -12 9 -3 68 -24 130 -46 243 -88 470 -130 748 -138 489 -15 934 88
1429 332 261 128 574 327 575 365 0 20 -203 431 -275 555 -74 128 -211 337
-288 440 -201 265 -447 506 -670 655 -146 97 -346 192 -437 206 -35 6 -40 4
-40 -12z"/>
<path d="M12516 2504 c-310 -61 -630 -257 -961 -589 -220 -219 -393 -434 -592
-734 l-103 -154 0 232 0 231 -210 0 -210 0 -2 -197 -3 -196 -49 74 c-27 41
-93 133 -146 204 -467 629 -968 1025 -1402 1109 -117 23 -158 27 -158 16 0
-21 52 -145 101 -241 118 -230 301 -472 510 -674 234 -227 469 -392 781 -552
106 -54 111 -58 78 -61 -198 -16 -585 -91 -815 -157 -443 -127 -842 -327
-1097 -549 -82 -72 -228 -230 -228 -247 0 -26 335 -16 573 17 671 93 1326 399
1780 833 l77 74 0 -332 0 -331 210 0 210 0 0 351 0 351 88 -83 c501 -475 1180
-781 1907 -858 221 -24 485 -25 485 -3 0 4 -31 43 -69 86 -318 362 -865 631
-1581 776 -151 31 -468 80 -518 80 -4 0 54 33 128 73 493 267 839 573 1110
980 106 159 240 425 240 477 0 13 -50 11 -134 -6z"/>
<path d="M13535 1826 c-37 -16 -83 -68 -91 -102 -11 -41 2 -124 23 -152 24
-34 98 -72 138 -72 40 0 114 38 138 71 55 76 35 182 -46 243 -33 25 -121 32
-162 12z"/>
<path d="M7695 1762 c-175 -84 -111 -336 82 -320 89 8 143 62 151 151 11 131
-117 224 -233 169z"/>
</g>
</svg>
