<?xml version="1.0" standalone="no"?>
<!DOCTYPE svg PUBLIC "-//W3C//DTD SVG 20010904//EN"
 "http://www.w3.org/TR/2001/REC-SVG-20010904/DTD/svg10.dtd">
<svg version="1.0" xmlns="http://www.w3.org/2000/svg"
 width="50%" height="50%" viewBox="0 0 512.000000 512.000000"
 preserveAspectRatio="xMidYMid meet">

<g transform="translate(0.000000,512.000000) scale(0.100000,-0.100000)"
fill="current" stroke="none">
<path d="M2315 5109 c-798 -81 -1501 -518 -1927 -1196 -487 -774 -516 -1777
-75 -2578 316 -575 833 -1003 1460 -1210 266 -87 481 -120 792 -120 299 1 509
32 770 115 381 121 713 322 1004 605 229 223 376 424 515 705 405 817 344
1781 -162 2544 -92 140 -185 254 -315 385 -399 404 -893 653 -1462 737 -122
18 -477 26 -600 13z m532 -264 c265 -35 497 -105 728 -220 253 -125 445 -265
641 -467 419 -434 644 -991 644 -1598 0 -428 -115 -843 -331 -1195 l-51 -84
-77 102 c-147 198 -377 414 -586 549 -134 88 -373 203 -520 251 -71 23 -131
45 -133 50 -1 4 26 31 60 60 366 310 466 842 238 1264 -49 92 -93 149 -178
237 -253 258 -638 362 -992 265 -279 -76 -521 -278 -650 -544 -69 -141 -91
-231 -97 -400 -6 -161 9 -264 58 -399 56 -156 166 -312 299 -425 36 -30 64
-57 63 -59 -1 -3 -62 -25 -135 -49 -250 -83 -514 -228 -724 -398 -121 -99
-292 -277 -385 -402 l-77 -102 -51 83 c-164 267 -277 594 -317 915 -18 148
-18 415 0 561 110 882 717 1625 1556 1903 152 51 287 82 435 102 142 18 439
18 582 0z m-139 -1021 c294 -60 521 -277 598 -569 26 -102 25 -275 -4 -378
-63 -222 -205 -394 -407 -492 -120 -59 -204 -78 -340 -77 -134 0 -232 24 -344
82 -408 212 -542 720 -291 1103 170 260 487 393 788 331z m27 -1784 c616 -56
1169 -380 1515 -885 44 -65 57 -92 50 -104 -18 -34 -259 -259 -351 -328 -332
-249 -725 -406 -1134 -453 -118 -13 -390 -13 -513 1 -401 44 -798 203 -1131
452 -92 69 -333 294 -351 327 -7 13 5 38 50 105 415 608 1138 951 1865 885z"/>
</g>
</svg>
